<?xml version="1.0" encoding="UTF-8" standalone="no"?>
<svg
   viewBox="0 0 226939.44 23055.465"
   role="img"
   aria-labelledby="title desc"
   version="1.1"
   id="svg4"
   sodipodi:docname="rinox_acronym.svg"
   xml:space="preserve"
   inkscape:version="1.4.2 (1:1.4.2+202505120738+ebf0e940d0)"
   width="226939.44"
   height="23055.465"
   xmlns:inkscape="http://www.inkscape.org/namespaces/inkscape"
   xmlns:sodipodi="http://sodipodi.sourceforge.net/DTD/sodipodi-0.dtd"
   xmlns="http://www.w3.org/2000/svg"
   xmlns:svg="http://www.w3.org/2000/svg"><defs
     id="defs4"><inkscape:path-effect
       effect="bspline"
       id="path-effect4"
       is_visible="true"
       lpeversion="1.3"
       weight="33.333333"
       steps="2"
       helper_size="0"
       apply_no_weight="true"
       apply_with_weight="true"
       only_selected="false"
       uniform="false" /></defs><sodipodi:namedview
     id="namedview4"
     pagecolor="#ffffff"
     bordercolor="#000000"
     borderopacity="0.25"
     inkscape:showpageshadow="2"
     inkscape:pageopacity="0.0"
     inkscape:pagecheckerboard="0"
     inkscape:deskcolor="#d1d1d1"
     inkscape:zoom="1.0222222"
     inkscape:cx="486.68478"
     inkscape:cy="90.489131"
     inkscape:window-width="1854"
     inkscape:window-height="1131"
     inkscape:window-x="66"
     inkscape:window-y="32"
     inkscape:window-maximized="1"
     inkscape:current-layer="svg4"><inkscape:page
       x="0"
       y="0"
       width="226939.44"
       height="23055.465"
       id="page2"
       margin="0"
       bleed="0" /></sodipodi:namedview><title
     id="title">RINOX Acronym</title><desc
     id="desc">RINO in bold text with a hand-drawn, wiggly X stroke</desc><!-- Background (transparent by default) --><rect
     width="100%"
     height="100%"
     fill="none"
     id="rect1"
     x="-94697.609"
     y="-3857.7104" /><!-- Word "RINO" --><text
     x="-94554.258"
     y="-3732.7756"
     font-family="Inter, 'Segoe UI', Roboto, Helvetica, Arial, sans-serif"
     font-size="108px"
     font-weight="800"
     letter-spacing="2"
     id="text1"
     inkscape:export-filename="../Thesis/code/rinox/rinox/Thesis/code/rinox/rinox/assets/acronym.svg"
     inkscape:export-xdpi="96"
     inkscape:export-ydpi="96"
     style="fill:#ffffff;fill-opacity:1;stroke:#000000;stroke-width:3;stroke-dasharray:none;stroke-opacity:1">RINO  </text><!-- Wiggly "X" composed of two swooshing strokes --><path
     style="fill:#e50000;fill-opacity:1;stroke:#000000;stroke-width:3;stroke-dasharray:none"
     d="m 498.62772,85.80163 c 0.36684,-6.399457 1.91576,-19.687499 2.32336,-27.065232 0.4076,-7.377733 -0.32608,-8.845095 -2.03806,-8.926602 -1.71199,-0.08151 -4.40215,1.222813 -8.1522,8.926759 -3.75005,7.703946 -8.55973,21.806923 -11.413,29.103124 -2.85327,7.296201 -3.74999,7.785321 -10.27185,7.540746 -6.52186,-0.244574 -18.66836,-1.222816 -26.49448,-1.385853 -7.82612,-0.163038 -11.33149,0.489125 -13.36954,1.345114 -2.03805,0.85599 -2.60869,1.91575 4.89147,5.828864 7.50015,3.91311 23.07049,10.67927 30.85582,14.34776 7.78533,3.66848 7.78533,4.23913 7.01086,10.47566 -0.77447,6.23653 -2.32336,18.13847 -2.93477,25.88307 -0.61141,7.7446 -0.28533,11.33148 0.856,13.69562 1.14132,2.36415 3.0978,3.50543 4.97282,2.81247 1.87502,-0.69296 3.66846,-3.22009 6.80709,-12.14687 3.13863,-8.92678 7.62224,-24.25256 12.14674,-33.8314 4.5245,-9.57885 9.08963,-13.41029 18.79086,-19.97289 9.70124,-6.562591 24.5379,-15.855882 32.364,-21.236331 7.82609,-5.38045 8.64129,-6.847812 8.80433,-7.989125 0.16304,-1.141313 -0.32608,-1.956514 -2.36416,-2.241837 -2.03808,-0.285324 -5.62497,-0.04076 -12.1468,1.711986 -6.52183,1.752749 -15.97817,5.013555 -22.82604,8.274456 -6.84786,3.260901 -11.08691,6.521707 -13.41028,8.233666 -2.32338,1.711959 -2.73098,1.875 -3.3424,2.201092 -0.61142,0.326091 -1.42662,0.81521 -1.05977,-5.584247 z"
     id="path4"
     inkscape:path-effect="#path-effect4"
     inkscape:original-d="m 497.44565,92.690218 c 1.54892,-13.288044 3.09783,-26.576087 4.64674,-39.864131 -0.73371,-1.467421 -1.46739,-2.934783 -2.20108,-4.402174 -2.69028,1.304374 -5.38044,2.608696 -8.07066,3.913044 -4.80988,14.103543 -9.61956,28.206521 -14.42934,42.309782 -0.89676,0.489141 -1.79348,0.978261 -2.69022,1.467392 -12.14698,-0.978281 -24.29348,-1.956522 -36.44022,-2.934783 -3.5055,0.652187 -7.01087,1.304348 -10.5163,1.956522 -0.57067,1.059804 -1.14131,2.119565 -1.71196,3.179348 15.57096,6.766442 31.1413,13.532612 46.71196,20.298912 0,0.57066 0,1.14131 0,1.71196 -1.54895,11.90241 -3.09783,23.80435 -4.64674,35.70652 0.32609,3.58703 0.65217,7.17391 0.97826,10.76087 1.95656,1.14133 3.91304,2.28261 5.86956,3.42391 1.79352,-2.52722 3.58696,-5.05435 5.38044,-7.58152 4.48378,-15.32639 8.96739,-30.65217 13.45109,-45.97826 4.5653,-3.8316 9.13043,-7.66304 13.69565,-11.49457 14.83725,-9.29366 29.67391,-18.586953 44.51087,-27.880431 0.81523,-1.467421 1.63043,-2.934783 2.44565,-4.402174 -0.48914,-0.815234 -0.97826,-1.630435 -1.46739,-2.445652 -3.58703,0.24457 -7.17392,0.48913 -10.76087,0.733695 -9.45671,3.260935 -18.91305,6.52174 -28.36957,9.782609 -4.23921,3.260935 -8.47826,6.521739 -12.71739,9.782609 -0.40762,0.163047 -0.81522,0.326087 -1.22282,0.48913 -0.81524,0.489141 -1.63044,0.978261 -2.44566,1.467392 z"
     transform="rotate(-48.170912,-51201.058,104120.97)" /></svg>
