<?xml version="1.0" encoding="UTF-8" standalone="no"?>
<!-- Created with Inkscape (http://www.inkscape.org/) -->

<svg
   width="99.423805mm"
   height="34.304325mm"
   viewBox="0 0 99.423805 34.304325"
   version="1.1"
   id="svg1"
   xml:space="preserve"
   xmlns="http://www.w3.org/2000/svg"
   xmlns:svg="http://www.w3.org/2000/svg"><defs
     id="defs1" /><g
     id="layer1"
     transform="translate(-57.109553,-108.91807)"><text
       x="56.191044"
       y="137.98079"
       font-family="Inter, 'Segoe UI', Roboto, Helvetica, Arial, sans-serif"
       font-size="28.575px"
       font-weight="800"
       letter-spacing="2"
       id="text1"
       style="fill:#ffffff;fill-opacity:1;stroke:#000000;stroke-width:1.4;stroke-dasharray:none;stroke-opacity:1">RINO</text><path
       style="fill:#e50000;fill-opacity:1;stroke:#000000;stroke-width:5.29134;stroke-dasharray:none;stroke-opacity:1"
       d="m 498.62772,85.80163 c 0.36684,-6.399457 1.91576,-19.687499 2.32336,-27.065232 0.4076,-7.377733 -0.32608,-8.845095 -2.03806,-8.926602 -1.71199,-0.08151 -4.40215,1.222813 -8.1522,8.926759 -3.75005,7.703946 -8.55973,21.806923 -11.413,29.103124 -2.85327,7.296201 -3.74999,7.785321 -10.27185,7.540746 -6.52186,-0.244574 -18.66836,-1.222816 -26.49448,-1.385853 -7.82612,-0.163038 -11.33149,0.489125 -13.36954,1.345114 -2.03805,0.85599 -2.60869,1.91575 4.89147,5.828864 7.50015,3.91311 23.07049,10.67927 30.85582,14.34776 7.78533,3.66848 7.78533,4.23913 7.01086,10.47566 -0.77447,6.23653 -2.32336,18.13847 -2.93477,25.88307 -0.61141,7.7446 -0.28533,11.33148 0.856,13.69562 1.14132,2.36415 3.0978,3.50543 4.97282,2.81247 1.87502,-0.69296 3.66846,-3.22009 6.80709,-12.14687 3.13863,-8.92678 7.62224,-24.25256 12.14674,-33.8314 4.5245,-9.57885 9.08963,-13.41029 18.79086,-19.97289 9.70124,-6.562591 24.5379,-15.855882 32.364,-21.236331 7.82609,-5.38045 8.64129,-6.847812 8.80433,-7.989125 0.16304,-1.141313 -0.32608,-1.956514 -2.36416,-2.241837 -2.03808,-0.285324 -5.62497,-0.04076 -12.1468,1.711986 -6.52183,1.752749 -15.97817,5.013555 -22.82604,8.274456 -6.84786,3.260901 -11.08691,6.521707 -13.41028,8.233666 -2.32338,1.711959 -2.73098,1.875 -3.3424,2.201092 -0.61142,0.326091 -1.42662,0.81521 -1.05977,-5.584247 z"
       id="path4"
       transform="matrix(0.16855029,-0.20394886,0.20394886,0.16855029,41.403434,210.392)" /></g></svg>
