<?xml version="1.0" encoding="UTF-8" standalone="no"?>
<!-- Created with Inkscape (http://www.inkscape.org/) -->

<svg
   width="194.06851mm"
   height="223.27705mm"
   viewBox="0 0 194.06851 223.27705"
   version="1.1"
   id="svg1"
   xml:space="preserve"
   xmlns="http://www.w3.org/2000/svg"
   xmlns:svg="http://www.w3.org/2000/svg"><defs
     id="defs1" /><g
     id="layer1"
     transform="translate(-8.7712482,-22.783795)"><path
       style="fill:#a8a100;fill-opacity:1;stroke:#ffffff;stroke-width:0.600001;stroke-opacity:0"
       id="path1"
       d="m 29.960767,108.71478 -40.65957,6.50814 -25.965998,-31.958152 14.693572,-38.466289 40.65957,-6.508139 25.965998,31.958152 z"
       transform="matrix(2.5055037,-0.97523926,0.97523926,2.5055037,20.940517,-53.995847)" /><path
       style="fill:#fff315;fill-opacity:1;stroke:#ffffff;stroke-width:0.600001;stroke-opacity:0"
       id="path2"
       d="M 54.214722,114.4216 15.14702,137.00502 -23.944648,114.46311 -23.968615,69.337774 15.099087,46.754351 54.190755,69.296262 Z"
       transform="matrix(2.155483,0,0,2.155483,73.162831,-64.900259)" /><path
       style="fill:#ccc200;fill-opacity:1;stroke:#ffffff;stroke-width:0.600001;stroke-opacity:0"
       id="path3"
       d="M 531.45244,116.62092 428.38943,178.54557 426.29262,58.328065 Z"
       transform="matrix(0.84147394,0.01326295,-0.01418503,0.78677477,-339.86644,34.310873)" /><path
       style="fill:#cdc400;fill-opacity:1;stroke:#ffffff;stroke-width:0.600001;stroke-opacity:0"
       id="path3-7"
       d="M 531.45244,116.62092 428.38943,178.54557 426.29262,58.328065 Z"
       transform="matrix(-0.80817678,0.01326514,0.01362372,0.786905,535.78622,33.87765)" /><g
       id="g1"
       transform="matrix(0.18294777,0,0,0.18294777,36.988212,39.237393)"><path
         fill="#000000"
         opacity="1"
         stroke="none"
         d="m 173.08987,503.91418 c -4.81015,-6.20236 -9.2422,-12.26678 -14.80381,-17.3479 -1.68218,-1.53686 -2.61971,-3.40301 -1.41484,-5.30261 4.33264,-6.83069 10.69719,-11.28973 17.47293,-15.185 0.3916,0.40931 0.7832,0.81864 1.1748,1.22794 -3.56222,3.56561 -7.01953,7.24493 -10.72047,10.66022 -2.86283,2.64181 -3.33466,5.22567 -0.72084,8.18374 11.08227,12.54181 19.59764,26.90143 28.96879,40.66291 4.5334,6.65728 10.14018,12.34008 17.5856,15.93298 12.00742,5.79431 19.78412,4.58783 30.95197,-5.8244 -9.36467,1.66113 -17.75601,4.18432 -26.07637,-0.78888 2.12985,-1.9834 4.38933,-1.32105 6.38347,-1.34979 7.61862,-0.10981 14.79072,-1.89252 21.72244,-5.02015 3.22717,-1.45617 4.57538,-3.53772 3.96277,-7.03875 -1.37645,-7.86652 -2.58933,-15.76224 -4.02196,-23.61817 -0.62417,-3.42267 -2.6884,-5.10898 -6.34148,-6.00863 -4.69381,-1.15595 -10.02117,-0.51834 -13.9046,-4.4282 -1.19696,3.77662 -0.93528,4.6518 2.00638,6.57139 2.08891,1.36306 4.38652,2.44631 6.33092,3.98345 6.09364,4.81717 8.22832,11.86094 5.72081,18.1818 -2.54491,6.4151 -9.44425,10.61889 -16.78946,10.2298 -10.60487,-0.56177 -15.61282,-6.16309 -16.03183,-16.85715 -0.28865,-7.3671 1.14819,-13.05704 8.93709,-15.79087 3.24522,-1.13906 4.6775,-3.92315 4.00636,-7.67752 -1.05193,-5.88458 2.26244,-10.03155 8.18532,-10.3677 5.89715,-0.33463 11.65167,0.24188 16.85971,3.44284 1.87007,1.14935 3.86711,1.81671 6.97558,0.98773 -6.19557,-6.58142 -12.20678,-12.7196 -15.76684,-21.83011 3.57643,1.49375 5.17064,3.8685 7.16148,5.66065 4.59333,4.13491 9.2372,8.17456 15.00099,10.63961 2.07819,0.88877 4.47385,1.50675 5.9892,-0.50525 1.76209,-2.33965 -0.55655,-4.01995 -1.93869,-5.50244 -9.07626,-9.7348 -19.81445,-16.04101 -33.53697,-16.58993 -5.79949,-0.232 -11.57485,-1.2063 -17.34464,-1.96832 -2.07067,-0.2735 -4.3628,-0.40186 -5.50724,-2.85001 1.91612,-2.47672 4.85017,-2.33475 7.31593,-2.45871 11.85797,-0.5961 21.20178,-6.18222 29.28892,-14.29349 1.36083,-1.36484 2.99653,0.64609 4.60003,-1.98333 -2.71508,-5.32844 -2.9786,-12.11478 -4.81554,-18.57425 -4.92227,-17.30869 -10.56793,-34.37256 -16.98683,-51.18403 -2.55293,-6.68621 -1.93849,-7.32037 5.2283,-7.26327 3.1427,0.025 6.44078,2.19559 9.75,-0.35108 -2.05093,-4.65408 -7.0136,-5.19143 -10.28183,-8.14138 -0.10999,-5.07828 -4.37241,-12.32419 -10.25177,-12.55683 -1.49449,-1.95831 0.66693,-3.34561 0.8679,-5.52517 -3.34503,0.34182 -4.9127,-1.62375 -5.45521,-4.63086 -0.27278,-1.5119 -0.65755,-2.61777 -2.36556,-3.40128 -3.56785,-1.63669 -7.04408,-3.48764 -8.99662,-7.34018 -0.94571,-1.86603 -3.25403,-1.99991 -6.03334,-2.73736 -2.74814,19.4916 -0.12395,38.55639 1.46548,57.6307 -2.30713,-0.097 -3.16826,0.31781 -4.55186,2.39499 -2.05031,-2.34033 -2.17835,-5.2207 -2.48172,-7.90561 -2.12641,-18.81848 -1.08791,-37.58783 1.34134,-56.29379 0.84849,-6.53354 -0.87412,-11.87488 -5.56273,-16.45776 -1.24623,-1.21811 -1.95681,-2.98426 -3.08365,-4.7685 -4.87926,1.34079 -9.38297,3.33536 -13.14075,6.71866 -3.53099,3.17917 -3.82909,7.20117 -2.36941,11.46973 1.23767,3.61932 2.60246,7.19513 3.84707,10.81216 1.87073,5.43665 1.03282,10.53171 -2.25513,15.18061 -2.30525,3.25942 -4.84158,6.35461 -7.18023,9.59143 -5.79463,8.02017 -7.22164,16.51492 -3.29004,25.89798 3.69693,8.82306 8.43542,17.02639 13.97427,24.74975 6.69161,9.33081 9.30107,19.04911 4.23903,29.96857 -0.4841,1.04428 -0.80218,2.20352 -0.98225,3.34332 -0.46701,2.95651 0.37523,4.44141 3.8197,3.73346 2.85059,-0.58585 5.80171,-3.05887 8.57719,-1.25403 2.88482,1.87586 1.28783,5.58673 1.86712,8.43344 0.92413,4.54145 4.17456,8.20771 5.0655,13.28769 -3.9395,-0.36496 -5.13791,-3.18652 -6.61101,-5.31338 -3.20636,-4.62924 -6.50453,-8.68924 -12.68242,-9.57465 -3.27012,-0.46866 -4.7635,-3.17944 -4.85693,-6.65518 -0.12077,-4.49295 1.41463,-8.55566 3.08119,-12.51767 2.42261,-5.7594 1.70679,-10.89731 -1.69871,-16.01407 -5.28224,-7.93661 -10.72119,-15.68515 -18.70819,-21.2276 -4.77764,-3.31534 -6.30739,-7.58447 -4.86092,-13.44107 2.85788,-11.57129 6.59544,-22.69635 13.51256,-32.54458 2.64665,-3.76819 3.1828,-7.93638 2.48418,-12.39194 -1.05625,-6.73636 -1.94698,-13.4997 -3.08213,-20.2222 -0.65893,-3.90228 0.63442,-6.79526 3.67913,-9.15192 2.65213,-2.05282 5.43432,-3.76208 8.6136,-4.9526 5.59019,-2.0933 11.23016,-4.13587 16.42033,-7.38498 -0.27864,-3.2493 -1.97409,-5.22699 -4.46086,-6.88736 -5.12425,-3.42136 -10.26295,-6.84607 -15.1532,-10.58647 -6.07414,-4.64599 -10.70856,-10.46174 -12.86676,-17.9804 -2.52611,-8.80041 1.14415,-16.44343 9.59134,-19.90283 8.61992,-3.53012 17.81775,-4.12546 26.9115,-4.96175 22.36383,-2.05664 44.60379,-1.07133 66.51883,4.0887 4.63766,1.092 6.69287,-0.53151 8.25656,-4.58642 5.33234,-13.82787 10.10751,-27.9278 16.85483,-41.13011 7.66608,-14.99999 8.70465,-31.77898 13.7774,-47.48062 7.47013,-23.1222 11.63782,-47.149502 17.3035,-70.769287 0.54269,-2.262478 1.30917,-4.472531 2.00174,-6.697583 2.7392,-8.800262 8.90515,-13.23653 17.88974,-14.386352 18.02899,-2.307305 35.88083,-1.117909 53.65527,2.301174 42.42054,8.16 81.22916,25.363667 118.15329,47.244724 20.23139,11.989044 40.04511,24.650884 57.53363,40.485244 12.91034,11.68926 23.94184,25.01496 32.14618,40.52956 3.49811,6.61497 4.26325,12.48212 -0.49658,19.38372 -11.92786,17.29509 -24.84296,33.83728 -37.34808,50.68843 -24.35144,32.81459 -46.12604,67.33446 -68.0676,101.75508 -2.2952,3.60055 -1.12888,5.61807 1.31247,8.1246 16.76138,17.20914 28.71814,37.41712 37.33063,59.74985 2.84234,7.37021 3.99225,14.68304 1.6889,22.39389 -0.66272,2.21857 -0.77905,4.5946 -1.25659,6.87525 -2.44177,11.66073 -2.45441,11.65808 -13.34058,16.24389 -5.41357,2.28046 -5.63989,3.0875 -1.99487,7.76169 2.06958,2.65393 3.62683,5.53049 4.75226,8.72406 3.04602,8.6438 6.27002,17.25067 10.66058,25.30286 5.3935,9.89166 3.04004,19.00524 -3.18127,27.03653 -7.28577,9.40533 -16.29999,16.49249 -29.22299,16.98217 -4.00232,0.15161 -7.88703,2.49689 -11.89618,3.57544 -7.45514,2.00574 -15.10721,2.37732 -22.78815,2.32459 -5.56915,-0.0383 -9.76343,2.08246 -13.01755,6.86932 -3.45318,5.07965 -7.70706,9.60834 -11.48135,14.47833 -3.69647,4.76953 -3.27808,7.65515 1.37582,11.45606 4.96186,4.05243 10.82761,6.5274 16.46442,9.38995 6.56033,3.33155 12.92676,6.9754 18.35123,11.9906 3.07135,2.8396 5.88324,5.72632 3.73944,10.80908 -1.27582,3.02491 1.95309,5.09357 3.73758,7.08704 12.7958,14.2945 26.5689,27.6015 41.11279,40.11444 2.14447,1.84503 4.23804,3.76624 6.20514,5.79749 6.47394,6.68512 7.31695,12.18188 3.06122,20.35364 -2.93586,5.6372 -6.54718,10.84155 -10.83442,15.54107 -3.55358,3.8952 -7.77612,6.97687 -13.00228,7.96729 -7.19266,1.36291 -12.2695,5.24243 -16.38489,11.19482 -4.88394,7.06409 -11.20169,12.76648 -18.99549,16.61096 -5.45254,2.68964 -7.03384,2.26129 -10.34222,-2.76172 -1.55457,-2.36023 -2.72879,-4.97711 -4.34488,-7.2893 -2.5065,-3.58618 -4.67801,-3.38208 -6.4104,0.65204 -1.90152,4.42791 -3.37805,9.03833 -5.27987,13.46612 -1.62964,3.79407 -4.58817,5.7926 -8.84238,6.35077 -7.79615,1.02283 -16.27945,9.05249 -17.97284,16.85504 -0.84769,3.90564 -1.46799,7.83588 -3.81424,10.84125 0.79822,2.79919 4.07522,1.31439 4.79355,3.71838 0.25796,2.51569 -2.94614,2.34882 -3.56125,4.29529 -0.0197,1.47534 1.21234,1.93439 2.21606,2.36353 9.96805,4.26147 18.02863,11.28296 26.26148,18.05383 3.87262,3.18494 7.77697,6.41126 12.52444,8.11816 4.53485,1.63037 5.13806,4.77662 4.16065,8.73993 -1.24228,5.03742 -3.30411,9.79315 -5.65046,14.39289 -3.54705,6.95373 -6.5375,14.25628 -12.02197,20.06671 -0.52643,0.55761 -1.18155,1.74011 -0.94381,2.15429 1.84594,3.21552 1.87344,7.93604 5.31005,9.65198 7.12909,3.55963 13.23615,9.09967 22.36771,8.82825 7.43723,-0.22107 10.93506,5.12329 11.3309,12.58319 0.5123,9.6543 -3.39709,17.65234 -9.42645,24.56787 -8.00949,9.18677 -14.13928,19.00946 -16.15228,31.35504 -0.94446,5.79236 -5.0911,10.66419 -6.63156,16.56989 -0.64185,2.46051 -4.64194,3.98858 -7.00376,6.06708 -8.49991,7.48028 -16.56802,15.51055 -25.4989,22.43017 -22.10583,17.12763 -46.00107,18.31268 -70.91742,6.51117 -1.49893,-0.70996 -2.94952,-1.57318 -4.30002,-2.53692 -7.73315,-5.51819 -7.58932,-10.48499 0.33179,-15.62372 8.81229,-5.7168 17.36066,-11.80371 25.46017,-18.50409 1.38956,-1.14954 2.92844,-2.19708 3.33097,-4.3346 -2.25498,-2.3844 -5.06079,-0.90997 -7.53067,-1.23993 -2.18265,-0.29168 -5.3147,0.80072 -5.89139,-2.24695 -0.52799,-2.79046 2.45825,-3.60467 4.46374,-4.64453 3.57331,-1.85272 7.47229,-2.78833 11.33643,-3.83355 3.14798,-0.8515 3.81726,-3.06305 1.43137,-5.09296 -4.41468,-3.75641 -5.18277,-7.46381 -0.87522,-11.5069 -1.24899,-2.00488 -2.71731,-1.05505 -3.77649,-0.66778 -17.1286,6.26312 -35.33172,8.18988 -52.76336,13.15954 -7.73124,2.20423 -15.31879,4.38526 -23.48709,3.93427 -7.53766,-0.41614 -12.23145,-6.26178 -10.25586,-13.59015 1.87991,-6.97351 5.74466,-12.74603 11.75378,-16.85443 3.40152,-2.32544 5.95606,-5.25696 7.87494,-8.85669 5.19183,-9.73987 9.27069,-19.93433 12.13684,-30.57526 2.30264,-8.54876 -0.85599,-12.79217 -9.51334,-13.39306 -11.14739,-0.77381 -16.09448,-5.26752 -17.91571,-16.39728 -1.47741,-9.02863 -2.78863,-18.08509 -4.3266,-27.10309 -2.24084,-13.13947 -8.04269,-24.98083 -13.65365,-36.89026 -2.27081,-4.81982 -4.11493,-9.8515 -6.56287,-14.57446 -3.5263,-6.80365 -2.08059,-12.75373 2.13468,-18.6142 6.6181,-9.20117 12.60568,-18.81811 18.54791,-28.4671 1.91937,-3.11664 2.12735,-5.91937 0.94461,-9.40564 -6.25653,-18.44226 -13.79315,-36.48779 -18.17972,-55.51874 -3.92758,-17.03967 -4.6864,-34.59375 -7.80401,-51.77807 -1.42496,-7.85419 -2.806,-15.71674 -4.1514,-23.58497 -0.71625,-4.1889 -2.64398,-5.32818 -6.56563,-3.21087 -6.77629,3.65857 -13.20171,7.75378 -18.77626,13.12774 -7.64671,7.37165 -16.45964,8.29828 -25.48003,2.55518 -4.26661,-2.71643 -8.68887,-4.49499 -13.71797,-5.57397 -9.1701,-1.96741 -17.90571,-5.32758 -24.27753,-12.82782 -1.74418,-2.0531 -4.15428,-2.8133 -6.5709,-3.32093 -6.76665,-1.4212 -13.00113,-3.78582 -18.65377,-7.97161 -5.67363,-4.20136 -12.77905,-3.34089 -19.30702,-4.05292 -6.60041,-0.71985 -13.31711,-0.31531 -19.97625,-0.57373 -5.022855,-0.19483 -8.915189,1.69946 -12.400663,5.26556 -8.556495,8.75446 -13.910393,9.44525 -24.985969,4.11804 -7.279293,-3.50122 -13.58712,-9.0736 -22.172314,-9.89166 -2.700123,-0.25732 -3.880058,-3.39435 -5.518669,-5.48541 -7.689963,-9.81317 -8.810736,-19.20642 -0.450302,-29.71106 6.946174,-8.72766 10.901592,-19.42999 15.811599,-29.44647 2.897961,-5.91187 6.894131,-10.1858 13.150105,-12.91993 12.464317,-5.44741 15.270515,-12.42556 11.258308,-25.67859 -0.6753,-2.23062 -0.238525,-4.25006 0.523964,-6.3211 2.784394,-7.56268 7.320275,-14.19071 11.246125,-21.14322 1.601822,-2.83676 4.163772,-2.55295 6.567901,-1.55017 11.681685,4.87216 23.223205,10.02658 34.340565,16.13785 8.787,4.83032 10.74768,12.54687 10.13151,21.58178 -0.6069,8.89951 -2.99203,17.39866 -6.60107,25.49427 -1.76319,3.95511 -1.04196,6.76608 1.80574,9.8432 9.07525,9.80661 18.79542,18.49731 32.5094,21.09106 1.60655,0.30383 3.44075,0.95197 4.67971,-0.53732 1.05895,-1.27292 -0.23304,-2.46646 -1.00772,-3.91361 M 402.37888,306.93674 c 9.24465,-16.96265 18.32406,-34.01615 26.12316,-51.70099 7.80689,-17.70255 20.41138,-32.49555 30.30036,-48.49018 -1.84119,-2.30665 -3.53644,-2.67733 -5.11466,-3.07103 -29.78442,-7.43016 -57.51165,-20.0279 -84.45007,-34.339 -20.57455,-10.93027 -41.18085,-21.91237 -60.23416,-35.45778 -3.63587,-2.58481 -5.96033,-2.28174 -7.42056,2.09668 -0.52622,1.57774 -1.26529,3.08528 -1.77604,4.66724 -3.8226,11.84041 -6.77227,23.94952 -11.60375,35.47976 -12.35184,29.47748 -24.51743,59.03299 -36.75896,88.55669 -0.42645,1.02847 -0.58385,2.30661 -2.20238,2.37094 -1.59,-2.73721 -1.61975,-5.64761 -1.00803,-8.66305 1.00132,-4.93584 2.72368,-9.62268 5.13132,-14.01789 1.96904,-3.59449 1.44628,-6.24643 -2.14104,-8.38434 -8.87951,-5.29188 -17.94363,-10.2114 -27.59495,-13.96321 -1.71056,-0.66496 -3.55057,-1.61361 -5.86723,0.0189 10.04263,6.48935 20.92965,10.78507 29.2911,19.01743 -14.80975,-4.58112 -27.53195,-14.21211 -43.06019,-17.01143 9.58673,6.21243 21.22075,9.30055 29.65323,19.28069 -4.79094,0.15837 -7.56732,-1.77663 -10.39212,-3.34301 -11.23011,-6.22723 -22.69593,-11.93696 -35.03495,-15.62921 -5.97421,-1.78767 -11.92944,0.61215 -15.21725,5.67125 -1.89877,2.92171 -2.20603,5.69783 0.14662,8.71439 3.56915,4.57635 8.22612,7.73932 13.0255,10.74826 18.60483,11.66411 38.87495,19.78264 59.4461,27.04298 25.94104,9.15555 51.22928,19.82318 76.15509,31.37876 18.65687,8.64929 36.07895,19.34088 51.99985,32.45086 6.08637,5.01181 7.45536,4.73911 11.39551,-2.13699 5.79376,-10.11093 11.24417,-20.41861 17.2085,-31.28671 m 65.55383,-144.32906 c 3.03424,0.0162 6.24975,2.59271 9.3197,-0.46258 -0.49921,-0.60531 -0.7287,-1.12162 -1.11911,-1.31803 -2.37863,-1.1967 -4.78784,-2.33337 -7.19775,-3.4669 -27.30289,-12.84203 -53.89841,-26.91928 -79.34598,-43.23181 -16.94644,-10.8631 -31.88846,-24.564334 -49.58414,-34.306186 -0.80176,-0.441376 -1.39129,-1.413345 -1.87985,-2.254257 -2.53809,-4.368965 -7.39237,-5.105087 -11.17282,-7.611809 3.15127,6.458939 9.60483,10.316666 12.9953,17.784508 -6.82157,-2.764282 -9.97959,-9.009781 -16.24509,-10.687332 2.78082,6.365272 9.76825,9.527748 12.84958,17.048851 -6.97433,-1.608918 -10.22287,-8.137276 -17.31155,-8.990898 3.0469,7.526199 10.40304,11.245605 12.26608,19.194143 -6.06964,-1.52321 -8.23871,-7.373449 -13.8378,-8.804754 0.82724,6.285204 8.25903,8.558184 8.29181,14.787624 -4.35165,0.96484 -6.16095,-4.17993 -10.45688,-3.51054 2.004,5.78462 7.84378,8.8627 9.4527,15.02015 -5.67554,0.11207 -7.76144,-6.27258 -13.70075,-6.06984 2.17383,7.06825 9.30518,9.63763 11.5615,15.40938 -1.00083,1.8527 -2.68726,0.0861 -4.23984,1.79726 33.30734,23.77252 68.41162,43.58029 107.07251,56.00418 2.05475,-1.09617 0.0373,-3.47696 2.78442,-4.11451 10.11429,1.93698 19.61487,8.16877 30.68134,9.12454 -10.47461,-8.63761 -24.83698,-9.44944 -35.09192,-18.42484 12.69296,2.72023 24.37174,8.7871 37.52142,12.13683 -0.57229,-4.36809 -3.173,-4.86347 -5.14041,-5.76685 -9.07666,-4.16771 -18.27099,-8.08031 -27.32611,-12.29295 -2.39288,-1.11322 -5.24951,-2.10465 -6.53522,-6.6946 15.40723,5.59098 28.90226,13.3377 44.12613,16.32511 -8.19577,-7.31649 -19.77313,-8.39562 -29.40628,-16.03562 8.95838,-0.26347 14.95194,5.72734 22.59149,4.92446 -8.065,-11.08718 -23.58496,-10.39002 -32.09845,-20.68274 13.61701,3.77774 26.07908,10.51365 40.17597,15.17001 M 84.671364,435.18231 c -1.253052,2.50952 -1.236611,4.88339 -0.26767,7.64505 4.740311,13.51078 2.512955,19.7443 -9.402351,27.40848 -1.259011,0.80981 -2.492661,1.80911 -3.886353,2.23364 -6.141937,1.87073 -9.35609,6.60034 -12.129383,11.87454 -6.199554,11.79026 -11.507965,24.04065 -18.426071,35.46201 -2.856857,4.71643 -2.314476,9.33801 1.485813,13.2572 7.525597,7.76111 16.262955,14.01813 26.642639,17.05219 7.170792,2.09607 14.531006,1.45801 20.560555,-5.01538 -3.485855,-2.29706 -1.818932,-4.4953 -0.281662,-6.85242 5.72496,-8.77856 11.407729,-17.58533 17.017269,-26.43793 1.68981,-2.66672 3.25011,-5.44174 4.59061,-8.29812 2.89667,-6.17237 2.41295,-7.20789 -3.96753,-9.34198 -3.15802,-1.05628 -6.47127,-1.81928 -9.100882,-3.97254 -2.183014,-1.78756 -4.923096,-3.94943 -3.184639,-7.04083 1.644798,-2.92487 4.807403,-2.90311 7.908461,-1.81445 -2.4793,5.79956 -2.15825,6.41793 4.2768,7.6853 4.89255,0.96356 9.82966,1.69998 14.72505,2.65033 3.79319,0.73642 5.78909,2.50284 3.4729,6.60174 -1.19853,2.12098 -1.12888,4.40024 -0.5178,6.77567 0.85213,3.31241 2.68683,6.0459 4.5009,8.84882 2.56427,3.96209 2.27485,8.36877 -1.58915,9.88122 -6.76157,2.64655 -6.15943,7.83942 -5.98378,13.1684 0.23175,7.03088 1.7134,8.2807 8.47828,7.12439 2.61793,-0.44751 5.26407,-0.90259 7.78639,-1.70362 6.9153,-2.19604 8.13071,-3.8695 8.27123,-11.10669 0.10025,-5.16308 -0.24828,-10.35015 0.11996,-15.4895 0.70804,-9.88135 -3.69691,-17.32522 -10.54491,-23.75519 -5.77839,-5.42569 -12.8525,-8.09472 -20.44632,-9.83184 -2.89308,-0.66184 -6.23275,-0.038 -9.20573,-2.5961 2.46813,-1.3425 4.63918,-0.89008 6.66359,-0.77631 5.79431,0.32559 10.63775,-0.81485 12.78041,-7.05951 0.88957,-2.59262 3.02496,-2.28601 5.43892,-1.37357 -3.36789,-6.90158 -1.13608,-12.681 2.9025,-17.14239 3.635,-4.0156 3.06997,-7.26297 0.88992,-11.13614 -2.41893,-4.29761 -5.57028,-7.94266 -10.17762,-9.96817 -7.9253,-3.48413 -15.96958,-6.70264 -23.84441,-10.29468 -4.726056,-2.1557 -7.776395,-1.11255 -9.992429,3.58051 -1.487358,3.14984 -3.473114,6.06436 -5.563507,9.75787 m 204.387046,9.12274 c 0.51318,1.02533 0.91367,2.42456 2.43799,1.83713 1.40317,-0.54071 1.11624,-1.85062 0.79526,-3.01477 -0.43503,-1.57785 -1.63352,-2.94318 -1.3555,-4.57993 0.79544,-1.94555 3.09967,0.3664 3.98474,-2.06927 -0.66931,-5.35745 -6.1387,-9.58749 -5.84656,-17.06314 4.37219,4.9942 6.68405,9.97153 9.80487,14.36938 1.99533,2.81183 1.83771,5.32355 0.28232,8.33454 -2.20654,4.27151 -5.14212,8.36218 -5.21103,13.56805 3.89218,-1.23977 3.24442,-8.50308 9.5748,-6.58127 -0.595,-7.30789 7.12598,-11.17517 8.65607,-18.17868 -4.99543,-1.78448 -7.3588,2.63376 -11.13178,4.1847 -1.2825,-9.75568 -7.6579,-17.11246 -10.31869,-26.46497 3.25054,0.77216 3.8258,3.05432 4.89474,4.80893 1.98993,3.26642 3.76459,6.66485 5.77982,9.91473 1.75436,2.82907 9.41879,3.94522 11.76666,1.728 1.55444,-1.46796 1.35669,-3.34381 0.42206,-5.07358 -0.83835,-1.55154 -2.15323,-2.10693 -3.72834,-0.98858 -2.0559,1.45977 -3.73321,1.02514 -5.15069,-0.88898 -3.96158,-5.3497 -7.92108,-10.7012 -11.83054,-16.0889 -0.46798,-0.64499 -1.10073,-1.7782 -0.84707,-2.24478 2.45288,-4.51206 -1.52805,-6.80389 -3.02921,-10.17084 -7.59045,2.33765 -14.95013,4.25501 -22.75845,2.74722 -5.97159,-1.15316 -6.44016,-2.03137 -3.07538,-7.32778 1.5144,-2.38373 3.35947,-4.67157 3.15808,-7.7099 -0.3432,-5.17786 -1.63135,-10.17313 -3.17737,-15.10724 -0.5523,-1.76273 -1.62005,-2.88553 -3.56851,-2.922 -9.15094,-0.17133 -18.25966,-1.39108 -27.43593,-1.02765 -3.52939,0.13977 -4.37002,1.61319 -3.09349,4.81589 1.29256,3.24277 2.39667,6.56311 3.5141,9.87286 6.59662,19.53855 11.52765,39.70957 20.69209,58.28257 7.36083,14.91775 15.55861,29.4179 20.45171,45.43713 0.32352,1.05914 0.80783,2.22992 2.53821,2.65118 1.54788,-1.276 3.45831,-2.39233 5.69076,-3.1188 2.9429,-0.95764 4.10346,-7.20502 1.68158,-7.72202 -6.30331,-1.34558 -3.77661,-5.59524 -3.37826,-8.80545 0.50961,-4.10727 -0.83939,-7.50213 -2.58734,-10.93237 -0.90131,-1.76874 -1.84327,-3.51898 -2.66639,-5.3234 -0.15789,-0.34613 0.15287,-0.90609 0.22535,-1.25958 1.38635,-0.85617 2.65347,0.99411 4.02154,-0.23224 1.40222,-2.81741 -0.36499,-5.95993 0.25046,-9.47052 4.70709,2.8245 6.96698,7.02561 9.56732,11.81433 m 208.85504,-7.651 c 2.11783,0.448 4.22904,0.93039 6.35462,1.33795 8.76458,1.68036 15.29773,-2.07763 18.1018,-10.59478 0.71857,-2.18265 0.90497,-4.54502 1.28186,-6.83371 0.18396,-1.11759 -0.22851,-2.38327 0.80823,-3.2732 2.94324,-2.52639 1.99603,-6.15387 0.43109,-8.02316 -3.79364,-4.53137 -5.41632,-9.91736 -7.40722,-15.14362 -1.71759,-4.50872 -4.16364,-6.60586 -9.23957,-6.23239 -11.75818,0.86509 -23.42084,-3.23565 -35.2724,-0.90066 -1.36099,0.26813 -3.01297,-0.26004 -4.37298,-0.80841 -2.87207,-1.15808 -5.82648,-1.50907 -8.82785,-1.176 -12.85672,1.4267 -25.23438,-0.15231 -37.12302,-5.42022 -1.45773,-0.64591 -3.30191,-2.09577 -4.97815,0.0289 -0.1319,2.42041 1.86258,3.41339 3.30182,4.63159 10.29843,8.71677 20.46518,17.60605 31.05353,25.95914 13.76355,10.85787 28.08224,20.91921 45.88824,26.44854 m -40.13727,52.3393 c -3.78216,-4.47892 -8.91037,-6.54306 -14.46875,-6.87448 -8.79513,-0.52439 -14.40606,-4.47376 -16.48892,-13.1471 -0.31143,-1.29697 -0.50357,-2.90872 -1.73828,-3.48553 -7.56628,-3.53461 -14.28973,-9.94876 -23.85809,-6.76081 -2.99338,0.99726 -6.08652,1.64365 -8.89612,3.17792 -1.44473,0.78894 -3.035,1.75327 -4.61227,0.34857 -1.49918,-1.33511 -0.91523,-3.04345 -0.53068,-4.66662 0.82529,-3.48374 2.44806,-6.51496 4.9863,-9.07093 0.98191,-0.98873 2.49918,-1.82238 1.72751,-3.69662 -3.81827,1.48212 -6.45621,3.95019 -13.21448,12.32684 -5.6705,7.02845 -5.69925,8.35883 -0.3374,15.63324 4.39401,5.96137 4.34583,6.48816 -1.04031,11.36804 3.43573,4.04135 3.43573,4.04135 -4.49478,10.94135 0.21145,3.37732 1.87976,4.97552 5.39337,4.96982 2.81399,-0.005 5.64105,0.4129 8.43933,0.80655 2.17737,0.3063 4.57571,0.23001 7.04593,3.014 -14.16352,1.20468 -27.24103,0.18622 -40.21158,-1.974 -1.87567,7.6399 0.69586,10.78306 9.87488,11.62131 21.10791,1.92749 42.23935,1.58704 63.35785,0.0682 3.34146,-0.2403 6.50515,-1.38928 9.53402,-2.81009 1.72037,-0.80701 3.37851,-1.95895 2.99976,-4.10684 -0.40186,-2.27896 -2.47266,-2.53397 -4.33899,-2.46793 -4.65457,0.16461 -9.30295,0.49576 -13.95563,0.7233 -3.03378,0.14834 -6.16809,1.05786 -9.36889,-0.9336 2.08136,-2.59906 4.89367,-2.61538 7.35156,-3.18127 9.40549,-2.16553 18.88086,-4.03534 28.25726,-6.31509 3.25467,-0.79136 6.94889,-1.31449 8.5874,-5.50821 m -41.41476,128.23089 c 1.60068,-0.81878 3.08069,-1.9021 1.82626,-3.83795 -1.01172,-1.56128 -2.31808,-0.27808 -3.50833,0.20978 -6.34442,2.6001 -13.14514,3.45904 -19.76498,4.96661 -3.48212,0.79309 -4.36444,-1.39087 -3.60984,-4.53271 0.40299,-1.67792 2.02839,-3.18878 0.55945,-5.63275 -5.11581,2.37255 -8.35281,6.61609 -10.28113,11.45483 -1.45803,3.65869 2.36298,5.94446 4.54593,8.21802 13.38163,13.93719 27.0944,27.55884 40.36692,41.59759 15.08935,15.96051 30.66439,31.5846 41.04965,51.32697 0.3949,0.75055 0.66824,1.56506 0.70151,1.6441 5.7676,-1.5769 8.51773,-3.8341 7.25567,-9.37622 -2.43963,-10.71374 -4.74389,-21.45385 -8.24322,-31.88385 -0.47363,-1.41174 -0.28824,-3.45324 -3.00754,-4.08563 -0.23962,9.3808 4.11246,18.1767 3.36954,28.38708 -2.29932,-2.13275 -2.65692,-3.89502 -3.03784,-5.64941 -1.05893,-4.87732 -2.01749,-9.77948 -3.21009,-14.62396 -1.82882,-7.42914 -2.92334,-15.14728 -6.29797,-22.04608 -3.18659,-6.51447 -3.73462,-14.69867 -11.07132,-18.80793 -0.1976,-0.11059 -0.24072,-0.61816 -0.24136,-0.94079 -0.007,-3.75452 -2.11384,-4.7829 -5.23221,-3.85578 -1.11551,-2.12194 1.19577,-4.34417 -1.00437,-5.92334 -2.49017,0.44379 -2.02054,3.73926 -4.32293,4.4433 -1.77549,-3.00781 1.49847,-6.02746 -0.0272,-9.31494 -6.58991,3.92761 -6.20011,11.69025 -9.67563,17.24707 -2.51029,-2.11603 -1.25159,-3.94012 -0.8219,-5.5578 1.45215,-5.46673 3.10257,-10.88043 4.62515,-16.32898 0.4169,-1.4917 0.62708,-3.14496 -1.27591,-3.76385 -1.59128,-0.51752 -2.49249,0.76715 -3.09531,1.94305 -1.05981,2.06757 -1.88095,4.25604 -2.89202,6.35046 -0.52573,1.08906 -0.73557,2.71204 -2.74994,2.18689 -1.16883,-2.83111 1.74853,-5.34466 0.62548,-8.40997 -0.67932,-0.1228 -1.47464,-0.22461 -2.24844,-0.41418 -2.49203,-0.6106 -6.86941,2.30133 -7.19992,-1.38971 -0.32889,-3.67285 4.43561,-2.72815 7.8938,-3.59992 m -57.41577,-92.54388 c 4.06982,14.57947 12.37408,26.39007 23.56125,36.38617 4.47952,4.00256 9.61249,6.19171 15.51553,5.50574 6.59872,-0.76685 13.12967,-2.14069 19.67349,-3.34095 1.75974,-0.32275 3.20429,-0.77032 3.82904,-3.14868 1.31015,-4.98779 4.40189,-9.23431 7.30814,-13.39648 3.65808,-5.23895 4.80817,-11.13874 5.85055,-17.16571 0.0568,-0.32825 0.0937,-0.65991 0.14954,-0.98841 2.03104,-11.94415 5.24408,-12.33789 -10.17071,-10.78692 -11.3917,1.14612 -22.68754,3.35998 -34.28986,1.73791 -8.72052,-1.21905 -17.5574,-1.68054 -26.35812,-2.22754 -7.17429,-0.44598 -7.35184,-0.0699 -5.06885,7.42487 m -205.14997,27.49847 c 4.24546,1.56391 8.58646,0.89167 12.82886,0.23529 4.88115,-0.75506 8.14169,0.30158 9.12027,5.70807 0.29906,1.65216 0.53928,3.75525 2.77519,4.34082 5.78907,-2.93542 9.86292,-2.64898 13.29534,1.84345 2.35052,3.07647 4.18956,4.51928 6.77308,0.99609 1.85671,0.95551 1.73839,3.42346 4.37467,3.30536 1.16437,-6.86688 1.62836,-13.76013 0.50479,-20.68427 -0.1936,-1.19311 -1.09796,-2.53771 -2.07503,-3.29473 -7.83606,-6.07111 -12.8623,-14.30365 -17.69629,-22.68543 -3.48661,-6.04559 -7.5079,-11.02817 -15.60415,-9.96448 -1.735,0.22791 -3.69793,-0.24777 -5.38303,-0.8685 -4.71994,-1.7387 -6.79198,0.59037 -7.96968,4.70804 -2.28691,7.99585 -3.86946,16.15387 -5.75739,24.24146 -1.18861,5.09185 -0.0728,8.79931 4.81337,12.11883 m 144.45875,-59.06671 c 6.99771,-2.47308 10.47259,-1.2038 13.96771,5.22101 2.59893,4.77741 3.7735,10.02573 3.78363,15.35986 0.0191,10.06885 -3.94049,12.60218 -13.21314,8.84192 -2.46435,-0.99933 -4.81283,-2.28284 -7.2705,-3.3006 -1.37616,-0.56994 -2.74494,-1.7304 -4.83097,-0.77868 0.95212,1.35101 1.56943,2.54437 2.47251,3.45398 4.08389,4.11309 7.98126,8.17608 10.37329,13.75842 1.02469,2.39142 1.4151,6.54547 5.45318,6.92029 3.95374,0.36706 5.38837,1.97546 3.03556,5.60773 4.95712,4.5285 11.91076,3.93725 16.88912,7.93609 -2.26116,-3.49268 -5.05432,-6.28125 -7.53872,-9.32208 -5.06995,-6.2052 -8.23309,-13.05878 -5.1756,-21.1933 3.13635,-8.34418 6.5126,-16.5423 16.56329,-19.07675 2.48413,-0.62647 4.47641,-3.20084 1.89457,-5.18997 -3.74119,-2.88233 -3.16864,-5.62824 -1.61414,-9.10785 1.19458,-2.67398 0.63296,-4.54297 -2.83374,-4.60935 -9.81897,-0.18783 -13.66458,-3.39743 -15.62973,-12.97632 -2.36127,-11.51016 0.8876,-21.70462 7.37198,-31.12323 1.22546,-1.77996 2.56222,-3.48776 3.70831,-5.31622 0.61514,-0.98138 1.11716,-2.23684 -0.35745,-2.99527 -1.12616,-0.57925 -2.4617,-0.68701 -2.87476,0.81458 -0.65112,2.36688 -2.50555,2.84741 -4.45248,3.4313 -2.8681,0.86023 -4.96851,2.72452 -6.17273,5.44501 -1.54724,3.49533 -2.81567,7.11722 -4.43118,10.57861 -5.68012,12.17029 -6.35498,25.99066 -12.56143,37.98404 -0.0657,0.12692 0.33358,0.49445 0.66638,0.96048 0.69992,-0.31021 1.43573,-0.63632 2.77704,-1.3237 m 64.3991,258.32776 c 0.22196,2.6264 2.44895,2.83783 4.26493,3.48376 5.81598,2.06904 11.91497,2.94001 17.93554,4.12592 5.54541,1.09229 7.93122,-0.26245 9.96476,-5.55231 1.44891,-3.76904 1.81076,-7.73101 2.01718,-11.7301 0.0767,-1.48645 0.43469,-3.16351 2.16891,-3.56427 1.99997,-0.4621 2.44882,1.23523 2.9299,2.65515 1.43204,4.22663 3.65692,3.11237 5.7666,0.71857 2.1131,-2.39765 3.09702,-5.45368 4.31684,-8.37128 1.89847,-4.54089 0.27469,-7.55414 -4.05255,-9.01745 -7.86249,-2.6587 -15.81934,-5.03955 -23.74741,-7.50226 -2.56638,-0.79718 -4.52176,0.0558 -5.93518,2.3468 -6.20792,10.06244 -11.73114,20.45611 -15.62952,32.40747 m 29.85093,120.69879 c -2.65983,0.001 -5.32041,-0.0362 -7.97919,0.0173 -1.7417,0.0351 -3.17771,0.55114 -4.0322,2.34686 -4.65408,9.7807 -12.94693,15.22479 -22.69174,18.96387 -9.14648,3.50952 -11.87933,12.05603 -16.44086,19.54534 3.14441,1.49524 5.24466,0.78205 7.23453,0.0523 8.73727,-3.20379 17.44083,-6.49988 26.14581,-9.79101 0.60871,-0.23017 1.30173,-0.56659 1.66501,-1.06525 3.22547,-4.42767 7.97769,-4.97345 12.88208,-5.22845 1.46509,-0.0762 3.82178,0.0695 3.84949,-1.51203 0.0989,-5.63971 4.45779,-3.99866 7.43979,-4.97577 3.37625,-1.10626 7.16736,1.31586 10.25973,-0.97156 -0.10135,-2.5888 -3.51071,-1.6416 -3.46508,-4.00299 6.37191,-2.03357 6.74218,-3.88421 2.34414,-9.16162 -4.47781,-5.3731 -10.5755,-3.79541 -17.21151,-4.21704 M 361.31101,357.97394 c 1.42321,3.64032 4.41323,1.49054 6.51736,1.53567 2.54083,2.85999 2.37671,7.3573 6.23459,8.66095 1.82223,-0.92788 1.27664,-3.51077 3.48755,-3.69021 2.71145,1.10296 2.54187,5.10397 5.83346,5.88659 3.53818,-2.81549 2.24243,-5.25497 -0.49603,-7.67807 -14.59674,-12.91577 -29.57343,-25.3323 -46.22629,-35.57971 -16.53113,-10.17251 -34.39548,-17.44253 -52.50229,-24.1861 -1.53967,-0.57342 -3.54925,-1.39852 -4.44561,0.52283 -0.89692,1.92252 -1.19016,4.58838 0.22235,6.20648 1.63098,1.86844 4.98602,3.21643 6.72375,1.58774 4.63226,-4.34149 5.25345,-0.64795 6.56564,2.52835 0.94877,2.29663 1.95072,5.31565 5.21878,3.01605 3.60749,-2.53848 4.69135,-0.33755 5.73267,2.41398 2.8555,7.54492 3.77231,8.10333 10.96204,6.44162 1.35373,1.44387 1.17608,3.39877 1.59314,5.13906 0.67254,2.80631 2.19696,3.75974 4.64779,2.08963 3.90207,-2.65902 5.48334,-1.12182 6.52878,2.9018 0.70249,2.70364 2.27777,6.06195 5.51383,5.26984 3.46396,-0.84787 4.47467,0.91064 5.88443,3.00412 1.09213,1.62176 1.96457,3.50888 4.1286,4.00628 1.88757,-0.66968 1.91064,-4.0896 4.54144,-3.24667 2.27957,0.73038 2.07361,3.13345 2.63385,5.00714 0.40118,1.34158 0.50876,3.0665 2.35269,3.28519 1.78662,-0.43955 1.27561,-2.83439 3.20984,-3.21445 3.63724,1.06503 3.35455,4.84824 5.13764,8.09189 m 61.27114,502.11212 c 5.71299,-4.06622 11.0759,-8.53156 15.95313,-13.59106 2.25668,-2.34119 2.5245,-4.42548 0.21472,-6.89887 -4.43918,-4.75378 -9.02799,-9.33606 -13.95792,-13.58813 -2.80746,-2.42145 -5.50991,-2.33887 -7.95248,0.19384 -5.26694,5.46106 -11.74487,8.64893 -18.9343,10.60816 -4.01077,1.09308 -4.72476,3.39892 -2.34954,6.63366 4.04089,5.50312 8.10073,10.99744 12.32727,16.35773 4.55673,5.77924 5.46194,5.84802 11.98092,2.01721 0.71811,-0.42193 1.41596,-0.87829 2.7182,-1.73254 m 89.68769,-181.31744 c -0.66553,-5.47699 -5.3191,-0.69111 -7.43903,-3.10059 -0.64072,-1.2843 1.68469,-2.33283 0.8364,-3.90521 -1.16562,-0.94434 -3.08332,0.1499 -4.14322,-1.70972 1.12509,-3.00928 2.39376,-6.29297 -2.58033,-7.57995 -0.7326,-0.18958 -1.39822,-1.43409 -1.70877,-2.32508 -1.59851,-4.58594 -5.68045,-7.6438 -7.09863,-12.52588 -0.89795,-3.09112 -3.9823,-5.55841 -7.45813,-7.14673 -0.60413,0.82611 -1.25708,1.40186 -1.51398,2.11927 -2.63653,7.36358 -1.60519,14.55712 0.41761,21.95086 3.05462,11.16504 10.00796,20.55628 13.60009,31.43555 0.76911,2.32928 2.25373,2.62994 4.68796,2.14996 7.75992,-1.53027 12.70453,-7.29736 18.45893,-11.80865 1.7409,-1.36493 0.94934,-3.28693 -0.52124,-4.76251 -2.76136,-0.3927 -5.05866,2.9898 -7.97312,0.99707 -0.24924,-1.72632 1.34683,-2.19031 2.43546,-3.78839 M 490.47726,477.84228 c 0.72699,0.85166 1.0802,2.12623 2.86545,2.23734 0.46137,-5.58798 6.45923,0.64746 7.48706,-3.64413 2.27918,0.33264 2.9751,3.2149 5.66239,2.40942 0.86563,-5.31607 -5.22309,-8.56265 -4.63562,-13.84454 3.24063,-0.074 3.5231,3.63156 6.25683,4.1708 0.26435,-3.35879 -2.43683,-5.86892 -2.18139,-8.71539 0.47595,-5.30444 -0.91883,-8.07364 -6.18454,-8.86923 -3.10196,-0.46866 -5.8252,-1.48648 -8.17493,-3.36783 -2.44244,-1.95554 -5.03723,-2.09509 -7.41483,-0.57565 -5.5191,3.52703 -12.5487,5.2196 -15.3099,12.25259 -0.5564,1.41721 -2.08124,1.57046 -3.40808,1.67932 -2.3197,0.19031 -4.64868,0.26614 -6.97358,0.39429 -2.36633,0.13043 -4.73287,0.92413 -4.45474,3.58645 0.29639,2.83668 2.97043,2.05869 4.82758,1.74982 10.35776,-1.72256 18.74069,4.70594 28.16281,6.82602 1.20761,0.27176 2.07617,2.05035 3.47549,3.71072 M 360.31009,683.73621 c 5.60336,-2.79828 12.53601,-3.43482 16.2157,-9.34156 -1.26001,-2.44726 -2.98203,-2.19067 -4.56238,-1.64239 -2.3479,0.81482 -4.68002,1.74042 -6.89392,2.86481 -10.3468,5.25469 -12.66382,4.91223 -21.06659,-3.19251 -3.83127,-3.69537 -7.59027,-7.48907 -12.37555,-10.02344 -3.57892,-1.89544 -6.31586,-1.25006 -7.16,2.89447 -0.82004,4.02613 -2.92664,5.88764 -6.96497,6.51294 -2.98938,0.46277 -3.0419,1.15131 -2.18771,5.24597 3.69101,-3.86303 7.3077,-2.26861 10.89303,-0.0421 2.54575,1.58093 5.39786,2.84064 7.55512,4.84461 8.13482,7.55664 16.71481,7.5166 26.54727,1.87915 m -60.06973,-56.07593 c 3.08557,-0.67176 6.18048,-1.30371 9.25412,-2.02619 3.21069,-0.75469 4.26059,-2.60449 3.29904,-5.90777 -2.84848,-9.78552 -4.70499,-19.73206 -4.12915,-30.00317 0.0648,-1.15455 0.21206,-2.67744 -1.18283,-2.96302 -2.93564,-0.60113 -5.46186,0.96222 -8.00284,2.12598 -1.95517,0.89538 -2.63703,2.71246 -2.09326,4.5982 1.44061,4.99604 1.0458,8.67963 -5.74878,8.25159 0.94183,8.08685 1.83533,15.48688 2.65222,22.89533 0.36883,3.34515 2.63953,3.34149 5.95148,3.02905 m 49.90924,19.39685 c -2.04776,-8.56604 -6.04724,-16.41583 -9.09305,-24.61487 -0.89716,-2.41492 -2.91052,-2.2691 -4.99442,-1.26404 -3.8858,1.87415 -7.80004,3.65467 -12.13336,4.34369 -2.68951,0.42755 -3.74606,2.0686 -2.52136,4.66559 3.47134,7.36145 7.08362,14.64325 12.24188,21.03119 1.61063,1.99457 3.54898,3.13605 6.07495,2.26459 3.73709,-1.28919 7.64609,-2.3617 10.42536,-6.42615 m 12.60901,137.29993 c -3.22327,1.31689 -6.52866,2.46563 -9.6503,3.9906 -4.53653,2.21612 -4.83539,3.80395 -1.48099,7.45343 3.49991,3.8078 7.53277,7.00116 12.09512,9.47705 1.76724,0.95898 3.65735,1.88122 5.69162,1.19214 6.12137,-2.07361 11.11411,-5.87134 15.38047,-10.63215 1.19274,-1.33087 1.55633,-3.04547 0.0414,-4.45581 -1.65659,-1.54217 -3.22525,-0.99237 -4.85874,0.33442 -1.25299,1.01763 -2.00897,3.28167 -4.60583,2.18408 0.17251,-4.22589 3.39911,-7.07917 4.71338,-10.72858 0.51391,-1.427 1.10351,-2.94354 -0.0732,-4.21881 -1.24103,-1.34473 -2.78583,-0.6607 -4.15726,-0.0888 -4.1333,1.72358 -8.24127,3.50806 -13.09567,5.49238 M 465.44684,299.04291 c 10.30572,2.46789 20.5806,5.19824 32.03085,4.60431 -7.09943,-9.61444 -17.99213,-9.6182 -26.72012,-13.9892 10.14129,-2.22018 19.98276,2.48343 30.01703,0.68176 -0.11496,-0.60095 -0.10221,-0.85864 -0.17881,-0.88873 -11.93112,-4.68152 -24.77209,-6.03336 -36.88958,-10.05179 -1.25104,-0.41485 -2.18454,0.45392 -2.81024,1.57681 -0.71213,1.27799 -0.06,2.16111 0.70657,3.12092 0.93329,1.16857 3.03796,1.57058 2.54242,4.06048 -2.80841,0.005 -5.46973,-1.49072 -8.24198,-0.93372 -2.33563,5.7909 -1.39886,7.9119 4.51368,10.18064 1.39596,0.53561 2.84671,0.92846 5.03018,1.63852 M 423.3981,347.47 c -3.25476,3.05292 -0.5343,4.33804 1.78699,5.30051 5.69711,2.36224 11.70718,3.72369 17.71466,5.06115 2.12372,0.47281 4.54465,0.35209 6.23975,2.45993 -2.10621,1.64161 -4.05033,0.85441 -5.95621,0.60944 -9.90863,-1.27331 -19.57395,-3.75461 -29.30274,-5.91647 -1.75375,-0.38971 -3.51458,-1.23731 -4.91195,1.13638 0.61755,0.54709 1.12841,1.24316 1.81515,1.57199 13.29544,6.36621 27.5708,8.33878 42.06769,9.24646 1.31213,0.0821 3.5195,-0.33917 3.25513,-1.55884 -0.77191,-3.56109 2.31823,-4.09741 4.38406,-5.86315 -1.26199,-0.72666 -2.04279,-1.36741 -2.9375,-1.66074 -6.34561,-2.08066 -12.30008,-5.04312 -18.36972,-7.77786 -4.73871,-2.13511 -9.6171,-4.70191 -15.78531,-2.6088 M 297.72885,817.98895 c -1.27707,0.65894 -1.9303,1.75348 -2.26407,3.11511 -2.71133,11.06134 3.58441,20.70118 14.70627,22.46143 1.3122,0.20764 2.64719,0.27423 3.97266,0.3949 4.18542,0.38122 5.37979,-1.73572 4.56299,-5.49835 -0.96137,-4.42859 -2.99283,-8.4527 -4.79575,-12.56073 -3.8226,-8.70972 -5.78552,-9.75129 -16.1821,-7.91236 m 52.15079,-233.30786 c -2.65177,-1.38342 -5.25836,-2.86499 -7.97186,-4.11419 -1.69046,-0.77833 -3.70972,-2.43018 -5.24848,0.0688 -1.23501,2.00574 -1.09943,4.12097 0.81174,5.86145 5.90222,5.37506 11.96417,10.53278 18.78549,14.75006 3.21521,1.9878 5.55362,1.1709 7.65921,-1.68005 4.57434,-6.19373 7.80136,-13.13165 10.98377,-20.06714 1.39929,-3.0495 3.40719,-6.03357 3.2565,-9.6507 -2.78824,-1.04852 -3.39466,0.75226 -4.18134,2.45063 -2.65884,5.74035 -5.75726,11.23736 -9.39859,16.41558 -0.9707,1.38031 -1.79077,3.16254 -4.47022,2.50977 0.46683,-3.43042 3.67957,-5.50824 3.88993,-9.75946 -4.08966,4.96613 -7.8642,8.84094 -14.11615,3.21527 m -27.19483,134.99945 c -3.55194,-1.23279 -6.09417,0.0588 -8.06128,3.08264 -3.00353,4.61707 -5.51299,9.47754 -7.52072,14.60279 -0.55099,1.40661 -1.13861,2.77026 -0.0911,4.23993 1.36416,1.91387 9.70819,5.40673 11.74377,4.61566 4.18018,-1.62464 5.50046,-4.99951 5.168,-9.2312 -0.21554,-2.74347 1.01844,-4.72321 3.10712,-6.41925 5.38284,-4.37104 5.29108,-5.51716 -0.53482,-9.01478 -0.99399,-0.5968 -2.07199,-1.05364 -3.81098,-1.87579 m 57.69104,-281.42691 c -2.9418,-1.03329 -0.11172,-4.47958 -3.06683,-6.2384 -1.98132,11.40533 -12.66028,16.29748 -19.25732,25.97366 5.77975,-0.7287 10.20428,4.23377 14.42853,0.96982 9.69506,-7.49115 13.77566,-18.39963 16.06704,-30.04486 0.25449,-1.29346 -0.25476,-2.79962 -1.81457,-3.1658 -1.74073,-0.40866 -2.19336,1.057 -2.70182,2.30038 -1.31347,3.21188 -0.90487,6.95142 -3.65503,10.2052 M 375.16641,88.036079 c -0.57474,0.213181 -1.14944,0.426361 -1.72418,0.639542 0.0139,0.470612 0.0278,0.941231 0.0417,1.411842 12.8006,0 25.60119,0 38.40179,0 0.005,0.564942 0.01,1.129891 0.015,1.694832 -11.0105,3.138985 -22.89957,1.244583 -33.76047,5.449478 15.54272,5.745947 30.08551,-0.404197 45.54944,-3.84449 -2.17585,-0.770698 -4.2363,-0.337501 -5.30155,-1.803589 -0.88205,-1.793052 1.95529,-2.409751 0.5694,-4.963996 -14.08234,-0.933884 -28.59528,-0.977669 -43.79111,1.416381 M 323.59186,910.33197 c -1.44989,2.6676 1.4404,2.69025 2.41043,3.83014 1.05508,1.23987 2.92856,2.25897 1.38339,4.09534 -1.40008,1.66406 -3.46698,2.47204 -5.10663,0.4049 -1.54114,-1.94311 -3.51275,-2.32263 -5.67261,-2.57483 -5.26959,-0.61535 -10.55111,-1.14257 -15.80609,-1.86383 -4.3627,-0.59869 -7.09881,0.7024 -7.63104,5.45441 -0.52704,4.70557 1.03635,6.89111 6.21424,7.72803 3.96978,0.6416 7.96615,0.68768 11.69164,-1.24878 2.70575,-1.40643 5.58255,-2.0976 8.61207,-2.22174 2.39404,-0.0981 4.58102,-0.86975 6.49877,-2.25818 2.52381,-1.82721 5.98063,-3.63745 5.22156,-7.14191 -0.67523,-3.11749 -4.11691,-3.96899 -7.81573,-4.20355 M 464.68109,311.99689 c -7.86343,-1.18616 -15.36288,-4.72083 -23.84775,-4.33121 0.58924,4.25717 2.80478,6.01813 5.9856,7.28863 10.48984,4.18976 21.90991,5.74534 31.88925,11.42002 1.96079,1.11496 3.76938,2.1e-4 4.73508,-2.35413 -4.23911,-4.44537 -11.24271,-2.09302 -16.27487,-6.59073 8.02572,-1.54385 15.18618,3.15012 22.25677,-0.39004 -7.84375,-2.59763 -16.17575,-2.28626 -24.74408,-5.04254 M 435.0788,885.88544 c -2.10599,0.47039 -4.21567,0.92511 -6.3169,1.41589 -1.87524,0.43799 -3.61593,1.09204 -3.42364,3.50342 0.18838,2.36285 1.92978,2.89282 3.88556,3.00598 4.81002,0.27838 9.61959,0.63019 14.43429,0.7442 5.31741,0.12592 10.64063,0.0522 15.9606,-0.003 1.93329,-0.02 3.12439,-1.00458 3.1601,-3.06574 0.0255,-1.47211 -0.64331,-3.24097 -2.0221,-2.86682 -6.34127,1.72082 -8.4905,-2.82318 -11.02505,-6.89484 -1.4784,-2.37512 -3.09625,-2.75854 -5.18292,-0.68133 -2.41928,2.40832 -5.38764,3.85113 -9.46994,4.84192 M 273.71661,742.27685 c -3.21679,6.98133 -1.8193,15.25855 3.47593,20.58777 2.63668,2.65363 4.53863,2.28687 5.55838,-1.32366 1.24295,-4.40082 3.44699,-8.23871 6.08093,-11.90589 1.16675,-1.62427 2.57089,-3.57562 1.55813,-5.49994 -2.21405,-4.20697 -6.97821,-3.97803 -10.74661,-5.43097 -2.83127,-1.09161 -4.27939,0.84809 -5.92676,3.57269 m 115.17417,176.54432 c 1.31607,1.00073 2.80798,1.8388 3.91391,3.03399 2.88913,3.12226 5.36749,2.9513 8.26791,-0.13324 2.27411,-2.41851 5.21622,-4.04467 8.6012,-4.67047 5.40402,-0.99902 7.34045,-4.1875 5.78045,-9.44952 -0.70257,-2.36981 -1.94464,-3.44763 -4.33493,-1.79505 -3.37668,2.33478 -7.32815,2.89069 -11.22525,3.67249 -3.2366,0.64929 -6.55215,1.18878 -9.61422,2.35199 -3.78251,1.43695 -4.39801,4.18988 -1.38907,6.98981 m 31.38635,-817.8221 c -8.18487,1.08038 -16.41284,1.92869 -24.31503,4.856 22.38583,0.40708 44.5502,-2.1241 66.7406,-4.72101 -13.86753,-4.883671 -27.71527,-2.21378 -42.42557,-0.13499 m 23.25632,810.6938 c 3.25656,0.64795 6.49554,1.41223 9.77508,1.90814 2.77048,0.41895 4.40991,-1.31018 5.21219,-3.68438 0.90396,-2.67511 -0.86465,-4.21637 -3.04602,-4.86896 -9.92682,-2.96985 -20.00912,-2.32568 -30.05423,-0.75055 -2.53928,0.39819 -4.2764,2.41022 -3.81378,5.04364 0.59961,3.41376 3.65002,2.46588 5.69784,2.07709 5.16938,-0.98151 10.24387,-0.7547 16.22892,0.27502 M 469.94058,268.5379 c -3.09768,-1.07214 -6.19305,-2.30368 -9.58758,-0.26553 1.26941,4.41739 4.26934,6.77661 8.1838,8.19449 10.66529,3.86297 21.74802,6.08606 32.84473,8.22299 1.6319,0.31427 3.44238,0.64508 5.98303,-0.83667 -12.38153,-6.18072 -24.73572,-10.12512 -37.42398,-15.31528 m 36.927,-23.85548 c 6.15458,1.91725 12.83341,-0.24466 18.9907,2.77328 2.18725,1.07207 5.03613,-0.60148 6.43976,-3.26085 -1.63477,-2.10185 -3.8371,-2.52166 -5.90644,-2.70611 -10.85126,-0.9673 -21.16977,-4.0864 -31.27307,-7.86963 -4.14279,-1.5513 -6.45837,-0.47241 -8.1752,2.93494 0.47449,1.58368 1.55368,2.08575 2.55572,2.66609 5.12198,2.96646 10.93253,3.80545 17.36853,5.46228 m -197.9328,462.86696 c 0.94266,0.31567 1.8693,0.82886 2.83121,0.90698 2.17276,0.17627 4.71732,2.29059 6.44641,-0.1264 1.57587,-2.20289 0.59143,-4.82148 -0.70349,-7.0467 -2.52481,-4.3385 -5.75626,-8.07049 -9.67386,-11.23877 -2.31561,-1.87262 -4.01083,-1.45501 -5.89712,0.71393 -6.62787,7.62104 -5.73752,11.77314 3.48217,15.45343 0.92295,0.36841 1.85746,0.70801 3.51468,1.33753 M 452.45169,111.77239 c 5.89133,-0.73409 12.07507,0.0759 18.12491,-2.91948 -5.91412,-3.47609 -59.16882,0.0414 -64.95026,4.50138 15.94535,1.02411 30.91583,-0.55108 46.82535,-1.5819 m 36.2959,33.18577 c 6.85153,-0.36739 13.77393,-0.31779 20.71649,-2.85165 -3.61212,-3.72364 -49.24145,-1.96642 -53.15005,2.00692 10.63574,4.95964 21.16564,1.07123 32.43356,0.84473 M 433.32794,118.1395 c -6.47915,0.28973 -12.96496,0.54107 -19.04739,3.42486 21.31888,2.55633 42.13968,-1.38565 63.04931,-4.25147 -14.42978,-1.74952 -28.75698,-0.63931 -44.00192,0.82661 m -43.7666,568.01052 c -8.85834,6.63361 -16.63992,14.43811 -24.82132,21.98371 4.60065,3.40814 8.01239,3.26135 12.85608,-0.81964 6.25308,-5.26856 11.03745,-11.86829 15.72958,-18.50135 0.72672,-1.02734 1.82908,-2.30981 0.7218,-3.58093 -1.38131,-1.58575 -2.67706,-0.19171 -4.48614,0.91821 m -61.56363,187.44574 c -3.89401,-2.82617 -1.66962,-4.14831 1.3772,-4.48822 6.07669,-0.67804 11.86597,0.83777 17.52408,3.02619 1.67028,0.64599 3.38745,2.38464 5.51437,0.61206 -0.12686,-0.51544 -0.10965,-1.27393 -0.37259,-1.38825 -3.53552,-1.53802 -5.40411,-3.77276 -4.50397,-7.98236 0.4188,-1.95862 -1.35958,-3.37787 -3.18435,-2.61456 -5.67752,2.37506 -11.93509,3.24652 -17.24988,6.43402 -2.54645,1.52722 -5.12946,3.67969 -4.70139,7.10901 0.41013,3.28595 3.71576,3.38873 6.09592,4.35394 1.53793,0.62378 3.12793,1.16547 4.74133,1.5456 2.26947,0.53466 4.61414,2.06005 7.1843,-0.15534 -2.9018,-4.37225 -7.95364,-4.03979 -12.42502,-6.45209 m 1.5191,-99.3825 c -0.0578,3.09784 -2.19509,7.33404 2.68665,8.25171 4.81628,0.90545 5.43274,-3.46033 6.17017,-6.82746 0.95413,-4.35638 2.95071,-8.11438 5.74365,-11.49798 1.46933,-1.78016 2.6401,-3.80274 1.27341,-5.89148 -1.53675,-2.34851 -4.06315,-1.69709 -6.38602,-1.14954 -2.54691,0.60034 -3.97992,2.46222 -4.88065,4.64099 -1.58712,3.83924 -2.91971,7.78382 -4.60721,12.47376 M 478.40851,262.2984 c -3.21259,-0.58621 -6.11734,-3.19568 -9.89414,-1.0946 7.97986,4.54309 15.65036,10.11718 25.24353,10.16775 4.63956,0.0245 8.09729,0.79584 10.36411,4.94147 2.40387,-0.29495 4.53955,-1.55978 7.28409,-0.46216 -2.76105,-2.89383 -1.08084,-4.29828 2.32376,-5.5206 -6.39166,-2.3732 -12.07178,-2.72555 -17.55304,-3.8103 -5.72437,-1.13287 -11.3859,-2.43655 -17.76831,-4.22156 m 5.32703,-8.42207 c -1.27213,-0.37986 -2.53757,-0.78414 -3.81821,-1.13272 -1.31543,-0.35805 -2.7406,-0.67984 -3.44373,0.9163 -0.61584,1.398 0.0117,2.61521 1.17066,3.47888 0.79211,0.59027 1.65667,1.12439 2.56137,1.51621 10.5029,4.54873 21.64984,6.1235 32.93396,6.93979 2.10553,0.15234 4.34753,-0.14847 5.23614,-2.81623 -1.67029,-2.0274 -3.73163,-2.58731 -6.06872,-2.17547 -1.12894,1.08368 0.45031,3.43112 -1.89984,3.63223 -1.36026,0.11643 -2.49997,-0.8847 -2.41059,-2.01147 0.2984,-3.76273 -2.72662,-3.42853 -4.66565,-3.62824 -6.49966,-0.66937 -12.68387,-2.47348 -19.59539,-4.71928 m -89.08643,339.39015 c 4.09344,-2.60791 7.03259,-5.58887 3.06988,-10.50513 5.23322,-2.36712 5.23322,-2.36712 6.9397,-5.31177 -2.62164,-1.07812 -12.96667,-1.86083 -15.0325,-1.13745 -2.64966,0.92786 -3.3233,4.88739 -1.15518,6.96106 0.79623,0.7616 2.33322,0.55298 2.66437,2.01001 -0.45957,1.60163 -2.06,2.00012 -3.16703,2.92383 -1.93213,1.61237 -4.49136,3.5744 -3.32675,6.05737 1.33444,2.84497 4.32291,1.16974 6.62402,0.5315 0.94596,-0.26239 1.8237,-0.77069 3.38349,-1.52942 M 497.84094,246.8414 c -3.49237,-1.08981 -6.94134,-2.36411 -10.49338,-3.20044 -2.13879,-0.50357 -5.05548,-1.35448 -5.89285,1.78925 -0.78924,2.9627 1.34967,4.31944 3.97296,5.32417 10.93582,4.18843 22.43863,3.31189 33.7674,3.97638 0.8894,0.0522 2.0553,-0.0307 2.37817,-2.09911 -7.61474,-1.83938 -15.28564,-3.69235 -23.7323,-5.79025 M 283.59335,592.74438 c -1.71725,-4.37072 -1.10461,-9.4317 -3.64602,-13.52203 -1.82181,0.32507 -1.42136,2.56409 -3.22162,2.66248 -1.42032,0.20904 -1.96952,-2.17554 -3.71326,-1.58002 0.0165,10.46533 5.03195,24.30951 11.08286,30.26324 1.59131,-5.82177 2.15707,-11.43188 -0.50196,-17.82367 M 475.53232,305.2254 c -8.65518,-0.79608 -16.78888,-5.27701 -26.4242,-4.78711 4.233,7.55857 38.88962,13.53025 45.24222,8.46384 -5.76086,-3.10648 -12.0328,-2.54529 -18.81802,-3.67673 M 442.6897,920.80377 c -6.74295,-0.50293 -13.543,-1.74017 -20.60575,0.82611 1.68729,3.49646 4.21058,3.61316 6.60657,4.18689 5.72437,1.37061 12.06168,0.68183 16.96048,4.88739 1.8017,1.54676 3.54645,3.49305 5.75015,0.59375 2.11548,-2.78314 1.5546,-7.31579 -1.10537,-8.77173 -2.08301,-1.14013 -4.43528,-1.3142 -7.60608,-1.72241 M 391.58499,657.1366 c -3.96072,2.99517 -7.98318,5.91327 -11.85702,9.01696 -2.03843,1.63324 -2.91492,3.65113 -0.54834,5.86219 2.03863,1.90466 3.56314,1.6441 5.26977,-0.63288 0.92853,-1.23889 2.58176,-2.04278 4.04984,-2.7478 3.75189,-1.80176 7.47967,-3.55682 8.59564,-7.77856 2.09982,-0.51654 3.26184,1.69891 5.18274,0.81994 2.24786,-2.50891 1.88455,-4.87634 -0.39456,-7.34155 -2.51065,-2.7157 -4.72187,-1.35004 -6.98441,0.23743 -0.948,0.66497 -1.84473,1.40307 -3.31366,2.56427 M 511.47443,214.09935 c 10.7644,3.09561 21.63263,5.32634 33.84558,4.51183 -11.01837,-6.4222 -21.83417,-9.92527 -33.57404,-10.24276 -1.90054,-0.0514 -4.58557,-0.59016 -5.0375,1.9205 -0.45304,2.51655 2.30514,2.76004 4.76596,3.81043 M 558.5675,198.6485 c 2.94758,-0.55219 6.57691,1.3853 9.67603,-3.41727 -16.45813,-0.57432 -31.65521,-4.00622 -47.56512,-6.10722 2.25946,7.09771 18.12072,10.24553 24.66204,5.90225 3.24146,4.00658 7.92243,3.31561 13.22705,3.62224 M 379.96658,578.53137 c -0.40915,0.72376 -0.84598,1.43347 -1.22317,2.17352 -3.69669,7.25293 -7.6435,14.40198 -10.11215,22.20179 -0.9628,3.04193 -0.20087,6.03741 3.03759,6.91833 3.19352,0.86872 3.53904,-2.36145 4.15574,-4.44751 2.07125,-7.00616 4.03201,-14.04712 5.89434,-21.11188 0.86038,-3.26385 2.89337,-6.28509 2.44599,-10.04278 -2.41641,0.33429 -3.04316,2.13214 -4.19834,4.30853 m -15.84149,248.79364 c 2.2077,3.73474 4.65176,7.30658 8.06961,10.03803 2.28678,1.8277 5.02878,2.32043 7.26444,0.21161 2.15945,-2.03705 0.15649,-4.05048 -1.03879,-5.69965 -3.90201,-5.38367 -8.0958,-10.53839 -13.35431,-14.69134 -1.11227,-0.87836 -2.40048,-2.26563 -3.93176,-0.974 -1.32929,1.12109 -0.93119,2.74237 -0.3158,4.15631 0.92691,2.12982 1.9484,4.21844 3.30661,6.95904 M 482.32364,497.79593 c 2.28183,-2.52066 1.86392,-5.10492 -0.66617,-6.82163 -4.31656,-2.92883 -8.92728,-1.66595 -13.27893,0.19321 -3.82547,1.63437 -4.20966,5.10944 -4.22629,8.75781 -0.016,3.50162 1.84281,4.51432 4.77625,3.5531 4.38571,-1.4371 8.91586,-2.59121 13.39514,-5.68249 M 502.9964,231.52978 c 10.73694,2.81539 21.36682,6.42414 32.90735,5.08423 -0.47766,-2.37613 -2.06018,-2.31291 -3.21308,-2.69479 -11.00964,-3.64679 -22.53973,-5.41281 -33.50473,-9.2644 -2.04473,-0.71825 -4.28402,-0.38746 -5.5885,2.34196 2.22675,2.76173 5.7478,2.94064 9.39896,4.533 M 465.64163,470.5481 c -6.71612,-1.33988 -10.39953,3.52902 -15.83838,7.09701 6.32959,3.81082 11.48203,7.4881 18.18561,3.25674 1.96216,-1.23852 3.75458,-1.36505 4.5361,1.53318 0.24936,0.92462 0.93939,1.81018 3.29788,1.20059 -1.1076,-5.87051 -4.84005,-9.61163 -10.18121,-13.08752 M 441.2294,329.35007 c -4.55557,-0.91754 -9.01105,-2.92209 -14.15485,-1.63227 5.99625,6.16657 34.09198,14.53009 39.42591,12.18345 -6.72156,-6.58158 -15.64569,-8.34394 -25.27106,-10.55118 m 7.33148,-252.442912 c 9.90247,-0.211022 19.79782,-0.48729 29.45639,-3.32357 -14.65317,-1.976174 -29.28592,-3.38826 -45.05877,-0.650818 4.84567,4.332748 9.81048,3.897613 15.60238,3.974388 M 369.83789,858.659 c 2.79987,0.34582 3.15915,-1.22596 2.47058,-3.34595 -1.43152,-4.40723 -2.87597,-8.83246 -5.70364,-12.60352 -2.83377,-3.77923 -5.17169,-4.02746 -8.71915,-1.03314 -3.35483,2.83173 -3.48813,5.70844 -0.0753,8.77026 3.45212,3.09693 7.28131,5.72699 12.0275,8.21235 M 525.62903,199.99182 c -4.78028,-0.55072 -9.64887,-1.87067 -14.37152,1.21092 6.27044,6.08332 29.29394,7.88115 33.44586,2.43973 -6.24811,-1.19725 -12.23041,-2.34355 -19.07434,-3.65065 M 507.62527,88.294998 c -14.79119,-0.398071 -29.52331,-0.144531 -43.92443,3.874672 15.76403,0.949265 31.46539,0.976112 47.19387,-1.658966 -0.51052,-1.88401 -1.55316,-1.947678 -3.26944,-2.215706 M 321.79831,797.03406 c -2.27496,0.41211 -4.67169,0.25012 -6.76218,1.52374 -2.05737,1.25354 -3.01654,3.04077 -2.74801,5.44092 0.24493,2.18896 1.462,3.70001 3.4718,4.49335 4.50921,1.7799 14.93182,-2.35541 17.21545,-6.7995 -2.58642,-2.9516 -6.02518,-0.10389 -8.74649,-1.1034 -0.99365,-1.61627 1.50763,-2.35296 0.61804,-3.78808 -0.80108,-0.55561 -1.59042,-0.17169 -3.04861,0.23297 m -13.51914,-220.8938 c 2.62598,4.55182 5.18314,1.70874 7.70771,-0.1 2.93939,-2.10583 1.50973,-4.12134 -0.006,-6.36706 -5.49816,-8.14557 -15.29745,-8.54157 -22.78973,-13.66467 -1.14963,2.93878 -0.32343,3.82629 1.92828,3.68212 4.56315,-0.29211 7.05378,2.43842 8.75537,6.13727 1.45945,3.17237 2.71579,6.43823 4.40445,10.31232 M 368.57843,82.87149 c 6.9404,-0.332366 13.97983,0.532532 21.5893,-1.213096 -9.43754,-5.746803 -29.84052,-6.123314 -34.00483,-0.932007 3.44638,2.867264 7.59082,1.803635 12.41553,2.145103 m 109.92145,-2.821525 c -8.84949,0.451126 -17.95349,-0.699608 -26.9035,3.772995 5.99993,2.812347 37.84512,-0.05379 42.31927,-3.390518 -4.81162,-0.920143 -9.6276,-0.225502 -15.41577,-0.382477 M 444.02869,318.61703 c -2.22333,-0.27844 -5.03476,-2.80377 -6.37253,0.85276 -1.41126,3.8573 2.30542,4.31064 4.54431,5.08645 6.09714,2.1128 12.31653,3.87574 18.50418,5.72138 1.20541,0.35956 2.57367,0.93219 3.8884,-1.20154 -5.62122,-5.31372 -12.87503,-7.49414 -20.56436,-10.45905 m -90.15662,405.9022 c 0.42529,-1.69611 1.52451,-3.33912 0.48029,-5.15247 -1.11551,-0.23736 -1.64676,0.52557 -2.00962,1.20905 -4.27206,8.04669 -8.3284,16.19793 -10.6756,25.05584 -0.49041,1.85083 -1.16479,4.26569 1.64948,4.89032 2.91013,0.64582 3.84842,-1.74011 4.07852,-3.88226 0.80844,-7.52576 3.96091,-14.32404 6.47693,-22.12048 m 102.2233,-590.70884 c -4.90894,1.13723 -10.3356,-0.58386 -14.89606,2.79772 15.82257,1.26887 31.37433,-0.97528 46.98599,-2.89472 -1.43686,-0.77967 -2.88766,-1.28016 -4.31967,-1.2312 -8.95569,0.30623 -17.9072,0.73509 -27.77026,1.3282 M 422.70254,60.911457 c 7.31815,-0.09361 14.59501,-0.489502 22.50016,-2.294632 -7.5072,-5.407837 -22.361,-5.216961 -31.08811,-0.235763 1.91111,2.864727 4.95243,2.209323 8.58795,2.530395 M 437.81351,344.9678 c 4.78872,0.58661 9.58355,1.12802 14.36499,1.76889 11.37469,1.5246 11.37213,1.54361 14.21319,-0.40103 -10.26684,-3.52517 -20.10357,-6.14755 -30.51156,-6.05371 -1.49341,0.0135 -2.87275,0.83093 -2.89289,2.71265 1.08237,1.33236 2.56763,1.57037 4.82627,1.9732 m 95.7142,-116.08465 c 2.67157,0.4676 5.3313,1.41621 8.2503,-0.28003 -11.11602,-0.85965 -19.68365,-9.52747 -31.04415,-9.38957 -1.81379,0.022 -4.10651,-0.65792 -5.15323,2.44928 8.67968,3.90524 18.10449,4.76062 27.94708,7.22032 M 499.71268,99.920685 c 6.2048,-0.216324 12.41873,-0.346741 18.49698,-2.12143 -15.32789,-1.690094 -30.67914,0.403077 -46.03913,-0.272911 8.53421,4.517636 17.60016,3.188656 27.54215,2.394341 m -33.20829,25.291455 c -11.75927,0.44388 -23.47506,1.2573 -34.98959,3.78118 10.82764,1.07576 48.52594,-1.4167 53.98276,-4.35514 -6.16885,-0.95401 -12.07556,0.69748 -18.99317,0.57396 M 257.37732,489.63388 c -2.14113,1.07428 -4.6707,1.80274 -4.71764,6.04739 8.35628,-3.7546 16.03786,-4.00976 22.27633,3.10596 3.64056,-3.16086 3.43591,-5.69934 -0.0382,-7.92758 -5.30826,-3.4046 -10.99387,-3.17325 -17.52048,-1.22577 M 459.66574,63.986965 c -11.52865,-1.450584 -22.93323,-0.946132 -34.34772,1.52792 0.21546,0.786346 0.22858,1.044579 0.29892,1.061249 11.90403,2.820976 23.64722,0.180664 35.41275,-1.191353 0.68222,-0.07955 -0.24624,-0.906029 -1.36395,-1.397816 m 49.05173,40.352815 c -5.88709,0.46441 -11.77414,0.92882 -17.66123,1.39322 13.73081,2.88684 38.45017,2.37902 41.57853,-0.12705 -1.45264,-0.33412 -2.71778,-0.84235 -3.99762,-0.88271 -6.31861,-0.19925 -12.64112,-0.27464 -19.91968,-0.38346 m -24.10916,45.84735 c -3.14618,0.50785 -6.76288,-1.08981 -9.74179,1.9354 9.33389,3.1824 33.78756,1.34968 38.36181,-3.31624 -9.68033,-0.0354 -18.63867,1.82255 -28.62002,1.38084 M 335.46753,593.09924 c -1.60019,-1.30291 -3.05072,-3.04028 -5.48099,-2.15716 -0.66534,2.76794 1.52414,2.93036 2.86566,3.36865 2.80384,0.91589 4.34537,2.93622 5.43204,5.40875 0.79443,1.80768 1.37393,3.71503 1.97519,5.6015 1.5983,5.0149 2.68365,5.49213 7.50763,3.03455 1.27505,-0.64954 2.88452,-0.9303 3.77878,-3.32294 -5.08048,-3.71954 -10.33737,-7.5683 -16.07831,-11.93335 m -43.80448,47.83362 c 3.86503,8.04791 6.57313,16.76483 13.12024,24.3537 1.23594,-6.13605 -9.77066,-27.98218 -14.15194,-29.78143 -0.7157,1.73748 0.0984,3.23718 1.0317,5.42773 m 148.24918,300.70685 c 1.34515,-0.51544 2.96051,-0.67249 3.34195,-2.47241 -2.23917,-2.43341 -13.94229,-6.3949 -16.74069,-5.72913 -2.53455,0.60297 -2.00494,2.1247 -1.20749,3.76746 2.03369,4.18969 7.58997,6.03387 14.60623,4.43408 m -124.35226,-46.1778 c -3.4776,0.62213 -2.81668,2.74469 -1.47229,4.69513 2.17837,3.16022 14.45953,5.34107 18.72891,3.16767 -4.24973,-5.57709 -10.85843,-5.73536 -17.25662,-7.8628 M 519.33655,116.74592 c 7.599,0.0295 15.31372,1.22335 22.61993,-2.18607 -8.88769,-1.48703 -17.71319,-1.84753 -26.81964,-0.60468 0.76361,2.29336 2.15137,2.39919 4.19971,2.79075 M 222.71266,564.64624 c -0.9938,-4.86194 -1.13499,-10.06201 -5.12329,-13.95386 -3.31429,3.8855 0.45026,17.33918 5.93759,21.40357 -0.26985,-2.42939 -0.50252,-4.52399 -0.8143,-7.44971 m -11.00432,-10.38879 c -0.21162,-1.6084 -0.19691,-3.33283 -2.70442,-4.41126 -2.0157,7.74524 -1.87419,15.19153 0.0819,23.96796 2.66378,-6.88837 2.79551,-12.78607 2.62253,-19.5567 m 173.73618,95.98602 c 0.52466,-0.73944 1.63824,-1.36713 0.034,-2.86133 -4.63511,5.01911 -12.28031,5.44318 -17.31513,10.72327 2.98459,2.70666 5.41141,1.93024 7.69837,0.302 3.24878,-2.31305 6.48935,-4.65912 9.58276,-8.16394 M 319.0276,885.19196 c -0.2294,0.38488 -0.75247,0.91442 -0.64469,1.1333 1.99741,4.05706 13.7518,7.12878 18.49723,4.35894 -5.40604,-3.69641 -11.16922,-5.04223 -17.85254,-5.49224 M 300.69241,460.30508 c 0.6232,-2.29165 1.80332,-4.4877 0.9726,-7.1072 -4.53748,6.44058 -7.49784,13.42254 -7.83197,21.37643 4.01941,-3.69366 4.63678,-8.93643 6.85937,-14.26923 M 245.95914,224.54045 c -2.46091,-0.86633 -4.70067,-2.83087 -7.73786,-1.41986 6.739,3.04723 11.79404,9.19496 20.73639,10.86839 -3.48521,-5.51248 -8.24409,-6.85191 -12.99853,-9.44853 M 350.44369,772.0863 c -0.094,2.02845 -1.23626,4.25318 1.66468,6.37281 2.94793,-4.8653 4.75235,-9.82019 5.91079,-16.30286 -4.6806,2.4798 -5.72497,6.05835 -7.57547,9.93005 m 57.94443,-169.75488 c -5.39932,0.12842 -10.19043,5.15814 -10.255,11.23718 4.9176,-2.38574 8.74704,-5.40167 10.255,-11.23718 m 87.59442,-441.45785 c 4.60065,-0.47893 9.44571,0.79315 13.75733,-1.95531 -6.25427,-2.38623 -12.31504,-1.63642 -18.90039,0.33909 1.62616,1.89377 3.05133,1.41486 5.14306,1.61622 m -226.1065,141.71847 c 1.6907,1.18658 2.78091,3.36124 5.2688,3.32272 0.86645,-6.39553 -2.59989,-9.61813 -8.31906,-7.81036 -0.13498,1.95306 1.39981,2.86444 3.05026,4.48764 m 18.85806,341.62378 c -0.39053,-0.7655 -0.20618,-1.90185 -1.88815,-2.36236 2.85785,8.27032 4.59259,16.57311 9.4545,23.6853 -1.17823,-7.35779 -5.23713,-13.67542 -7.56635,-21.32294 M 254.74802,224.86333 c 2.30175,0.90136 4.48941,2.81645 7.20651,1.00534 -1.99335,-4.6709 -6.86299,-6.32514 -11.28485,-3.8913 0.70854,1.46741 2.24051,1.81642 4.07834,2.88596 m 137.84826,729.83442 c 2.91443,-1.06317 2.39716,-5.49237 6.76541,-5.5592 -2.88202,-2.22876 -5.14767,-4.55237 -6.89968,-0.5592 -0.75672,1.72473 -6.05893,3.66455 0.13427,6.1184 M 369.41782,648.60644 c 0.28503,-0.16192 0.61898,-0.27331 0.84698,-0.49414 1.31174,-1.27044 5.33631,-0.67376 3.69525,-3.7882 -1.29538,-2.45819 -3.74173,-0.37165 -5.58328,0.53027 -0.44086,0.21582 -0.89236,0.43225 -1.2836,0.72296 -1.22437,0.90973 -3.71353,1.3169 -2.83517,3.33014 1.10678,2.53687 3.00381,0.65564 5.15982,-0.30103 m 12.09082,-39.65923 c 3.29281,-1.73377 5.39968,-4.25934 5.89392,-8.12287 -5.59836,-0.46002 -7.37311,1.88025 -5.89392,8.12287 M 423.992,369.86609 c 3.76682,1.07394 7.55219,1.52926 11.42615,0.24344 -4.91278,-1.14136 -9.60565,-3.54831 -15.05868,-2.62561 0.61587,1.75668 1.89657,1.76721 3.63253,2.38217 m -9.64184,568.36554 c 1.99066,1.28754 3.99548,2.21289 6.35333,0.35126 -1.06961,-2.90119 -2.8905,-5.00293 -5.79553,-4.77192 -2.31778,0.18439 -1.85849,2.25122 -0.5578,4.42066 M 355.34805,450.8378 c 0.29944,-1.6377 0.72269,-3.31946 -1.73846,-4.24085 -2.00986,1.11072 -3.55115,2.62296 -3.44977,5.29902 0.0319,0.84097 0.21365,1.77777 1.13437,2.01959 2.07736,0.54556 2.90365,-1.03391 4.05386,-3.07776 M 543.63483,124.53658 c 2.38256,-0.54565 5.11676,-0.0612 7.57727,-2.55653 -4.55994,-0.95689 -8.34967,-1.07692 -12.96961,1.19826 2.20691,0.62127 3.43805,0.96784 5.39234,1.35827 M 418.07553,48.367413 c -2.41727,-0.01866 -4.86676,-0.146298 -7.15265,1.991146 4.16245,2.425369 7.64987,0.350975 11.52561,-0.07885 -1.07688,-1.673241 -2.46283,-1.565129 -4.37296,-1.9123 m -40.5549,636.520831 c 0.15701,-3.195 -1.87543,-1.4577 -2.83048,-1.05761 -1.65576,0.69348 -3.22689,1.76678 -3.30166,3.88495 -0.0386,1.09204 0.62851,1.96026 1.61532,2.23547 1.9354,0.53992 2.52716,-0.91461 3.10077,-2.34802 0.30292,-0.75696 0.74695,-1.4574 1.41605,-2.71479 m -8.57999,278.28235 c -3.52493,-2.13501 -4.89267,0.0963 -6.33844,3.00641 3.43946,1.79193 6.27231,3.05292 6.33844,-3.00641 M 473.85458,656.90344 c -2.86099,3.75647 0.23197,5.72949 1.93332,8.12891 1.42847,-3.14618 0.81757,-5.79157 -1.93332,-8.12891 M 335.63144,320.72507 c -0.12314,0.10705 -0.30365,0.19287 -0.35336,0.32711 -0.0502,0.13566 -0.0317,0.40311 0.0604,0.46998 4.53915,3.29364 9.48007,5.83139 14.96518,7.38678 -4.72391,-2.71656 -9.44782,-5.43308 -14.67224,-8.18387 M 549.69659,214.33998 c 2.97132,0.34502 5.74353,0.16805 7.97388,-3.1479 -4.22247,-1.56545 -6.97742,0.67117 -9.84314,2.41824 0.43207,0.20174 0.86414,0.40349 1.86926,0.72966 m -159.0559,155.70689 c -1.7902,3.88129 0.35186,6.02649 3.80957,8.47348 0.39132,-3.90432 -1.04248,-6.23001 -3.80957,-8.47348 m 5.9169,228.11939 c -1.44306,1.00976 -2.99167,1.96295 -2.45481,4.41241 3.02564,-0.52227 5.15674,-1.61486 5.89099,-4.49377 -1.07638,-1.13373 -1.98285,-0.62055 -3.43618,0.0814 m 15.0357,-16.09186 c -2.94388,0.82288 -5.06079,2.51233 -6.49649,6.3086 3.73749,-1.1073 6.17786,-2.25519 6.49649,-6.3086 m 40.6966,-69.77679 c -0.82111,1.77728 -0.0875,2.63763 1.6781,2.29651 1.93075,-0.37305 3.80224,-1.10816 3.31445,-3.71335 -1.9859,-1.1377 -3.29877,-0.0937 -4.99255,1.41684 m -41.50089,80.7278 c -0.68066,1.70215 -0.32257,2.76367 1.64624,1.92511 1.96189,-0.83563 3.42377,-2.32416 3.76386,-4.73016 -2.33872,-0.47486 -3.71732,0.85156 -5.4101,2.80505 m -120.26132,90.68927 c -0.89032,-1.79699 -1.08267,-4.10687 -3.52707,-5.13305 0.23047,4.61285 0.73224,5.63696 3.78162,7.80035 -0.0449,-0.77478 -0.0818,-1.4118 -0.25455,-2.6673 M 302.6745,581.17053 c -2.18433,-1.55865 -4.07333,-1.25451 -6.15683,0.94159 2.60013,1.61737 4.69608,3.02197 6.15683,-0.94159 m 49.04297,240.30359 c -1.12076,1.02637 -3.01459,1.72296 -1.60102,4.02515 1.96064,-0.0995 3.57987,-0.86627 4.23398,-2.73938 0.74323,-2.12824 -0.47992,-2.23749 -2.63296,-1.28577 M 103.28965,522.97931 c -0.813,1.88525 -2.43105,3.42468 -2.65174,7.17267 2.59987,-3.89685 5.0432,-6.23957 5.94484,-9.91187 -1.79183,0.17536 -2.18354,1.40692 -3.2931,2.7392 z"
         id="path1-4" /><path
         fill="#000000"
         opacity="1"
         stroke="none"
         d="m 211.1593,476.01648 c -6.56991,6.37994 -17.83363,7.78058 -25.15919,3.41028 -6.25193,-3.72986 -7.58001,-12.37958 -2.73041,-18.16794 2.71065,-3.23544 6.20724,-5.42066 9.78503,-7.11975 2.08333,0.17132 1.67025,2.59143 3.23906,3.00619 5.94345,-2.96551 10.12325,-2.52292 13.87249,1.45795 3.9579,4.20242 4.45439,11.19992 0.99302,17.41327 z"
         id="path2-3" /><path
         fill="#000000"
         opacity="1"
         stroke="none"
         d="m 174.48546,311.42017 c -1.55234,-4.12012 -4.63643,-7.29392 -4.40135,-11.82831 3.33825,-1.60126 6.18608,-1.12647 8.48504,1.60342 2.89844,3.44174 3.71616,12.80887 1.48651,16.96732 -3.43559,-0.75 -3.97541,-3.97891 -5.5702,-6.74243 z"
         id="path3-0" /><path
         fill="#000000"
         opacity="1"
         stroke="none"
         d="m 197.01358,392.74744 c 0.25908,4.79531 0.15735,9.13519 -2.17192,13.17868 -1.95085,-8.28794 -2.01707,-16.61612 -1.61435,-24.8537 2.48273,-0.73853 2.10629,1.64493 3.40665,2.03079 1.11944,-2.27716 -0.6332,-5.2922 2.13911,-7.66083 1.89063,5.53623 2.64084,10.85083 2.37155,16.55628 -2.98982,-0.52631 -2.14729,-3.18296 -3.80792,-4.5235 -1.44482,1.55872 -0.56265,3.26434 -0.32312,5.27228 z"
         id="path4" /><path
         fill="#000000"
         opacity="1"
         stroke="none"
         d="m 215.64288,490.35333 c -3.97213,-1.25757 -3.13533,-4.18109 -2.5549,-8.10611 2.78275,2.62137 3.5677,4.93579 2.5549,8.10611 z"
         id="path5" /><path
         fill="#000000"
         opacity="1"
         stroke="none"
         d="m 308.54309,267.55646 c 6.2077,-6.36017 12.73685,-11.66234 20.56708,-15.26889 6.82345,-3.14286 12.64258,-0.73986 18.16525,3.08667 2.63242,1.82394 2.14859,4.60006 1.40961,7.26855 -3.05063,11.01587 -11.07208,18.29627 -19.24146,25.41251 -3.39132,2.95416 -7.2976,5.19281 -11.46298,6.9552 -4.62219,1.95569 -9.05185,1.54776 -13.41412,-0.81128 -5.64264,-3.05145 -7.25238,-6.68546 -5.30484,-12.80896 1.70449,-5.35944 5.34939,-9.49814 9.28146,-13.8338 m 1.70819,23.25799 c 14.02139,-4.55423 24.93421,-12.88873 31.58496,-26.26269 1.30185,-2.61786 1.67542,-5.51126 -0.79635,-7.83911 -2.30423,-2.17008 -4.81028,-0.86524 -6.96201,0.18249 -10.28925,5.01023 -19.11465,11.97653 -26.46027,20.74259 -1.35708,1.61953 -2.3262,3.65829 -3.10836,5.64746 -2.12647,5.40774 -0.96497,7.09365 5.74203,7.52926 z"
         id="path6" /><path
         fill="#000000"
         opacity="1"
         stroke="none"
         d="m 353.11279,226.22223 c 3.72541,0.26924 5.13578,-2.76906 7.32419,-4.64528 2.39099,-2.04987 4.63034,-4.29021 7.12518,-6.2001 1.43149,-1.09588 3.4152,-2.05228 4.92811,-0.24021 1.36465,1.63452 0.0528,3.21846 -1.07779,4.39099 -2.76227,2.86455 -5.61432,5.65023 -8.54645,8.34096 -2.43149,2.23131 -4.2901,4.59499 -3.84238,8.17406 0.19528,1.56126 -0.15646,3.18721 -1.95477,3.55371 -2.03263,0.41426 -3.09885,-1.04183 -3.499,-2.76151 -1.20336,-5.17144 -4.11419,-4.80575 -7.73754,-2.57531 -4.95069,3.04754 -9.92331,6.05943 -14.88053,9.09642 -2.35507,1.44281 -4.67428,2.18335 -6.36306,-0.82723 -1.88086,-3.35296 1.13647,-4.15918 3.08587,-4.88939 5.78586,-2.1672 9.12247,-5.53883 8.05579,-12.26817 -0.65717,-4.14583 3.40478,-7.07867 3.57425,-11.22098 0.0506,-1.23685 1.75677,-1.36268 2.90304,-0.74141 1.66074,0.90009 2.22489,2.3777 1.84271,4.21759 -0.64883,3.12355 -3.11032,5.38361 -4.55944,8.7872 6.82357,0.34589 9.33651,-7.17495 15.16391,-7.52388 1.60748,3.25614 -2.37955,4.5401 -1.54209,7.33254 z"
         id="path7" /><path
         fill="#000000"
         opacity="1"
         stroke="none"
         d="m 364.17853,275.92401 c 0.23404,-2.46405 1.44049,-4.03235 2.80096,-5.52881 7.98673,-8.78518 18.0408,-13.9653 29.39585,-16.8815 2.1972,-0.56428 4.83972,-0.89532 5.61206,1.56146 0.9396,2.9889 -2.27014,3.21454 -4.08957,3.89978 -3.25946,1.2276 -6.62937,2.21168 -10.01648,3.03769 -3.96512,0.96701 -4.86014,2.67319 -2.53635,6.30494 3.23831,5.061 2.53732,9.7434 -1.58667,13.94625 -3.78574,3.85819 -9.04999,4.76053 -13.70212,2.34015 -3.38174,-1.7594 -4.8183,-4.89489 -5.87768,-8.67996 m 8.1571,-3.11981 c -1.14651,4.76742 0.4726,7.78879 3.73654,6.70837 2.89161,-0.95721 5.26712,-2.84622 5.61502,-6.27285 0.19745,-1.94428 -0.22522,-3.83252 -2.21749,-4.53257 -3.31229,-1.16385 -5.2519,0.88608 -7.13407,4.09705 z"
         id="path8" /><path
         fill="#000000"
         opacity="1"
         stroke="none"
         d="m 359.05145,201.69636 c -5.73938,-1.57971 -6.40826,-3.02227 -3.8428,-7.75834 2.88409,-5.32433 9.13824,-11.67165 13.25375,-13.25008 1.24164,3.4124 1.99539,6.39534 -2.79626,7.65 -0.91403,0.23935 -1.91199,0.79298 -2.50513,1.50611 -1.89758,2.28158 -4.65091,5.15728 -1.9425,7.75414 2.17822,2.08855 4.38638,-1.09779 6.08596,-2.65131 3.06858,-2.80488 5.77161,-6.03498 9.38477,-8.18907 1.75687,-1.04744 3.82114,-3.11748 5.7294,-0.8248 1.74499,2.09648 -0.65961,3.5244 -1.78912,5.04975 -0.29026,0.39195 -0.51892,0.82954 -0.93323,1.50132 2.75937,2.7537 1.86099,5.49405 -0.10324,8.37926 -1.00608,1.47783 -1.65174,3.27074 -2.14875,5.01026 -0.89504,3.1329 -2.99475,4.71592 -5.90594,3.56852 -3.01007,-1.18637 -1.80112,-3.79376 -0.81082,-5.97433 0.47265,-1.04068 0.9873,-2.06229 1.83603,-3.82665 -4.69208,1.56076 -8.03839,9.09432 -13.51212,2.05522 z"
         id="path9" /><path
         fill="#000000"
         opacity="1"
         stroke="none"
         d="m 306.3381,216.90387 c -7.6524,0.80862 -9.53338,-0.74565 -9.65884,-7.81636 -0.041,-2.31319 0.0296,-4.69916 0.54736,-6.93656 1.04273,-4.50602 5.09766,-7.61999 8.92923,-7.24076 4.36145,0.43165 6.8526,3.62429 7.1019,9.16806 -1.97214,0.70321 -2.43002,-1.28508 -3.49161,-2.06905 -2.22732,-1.64484 -4.43765,-2.49472 -6.73208,-0.36597 -1.58701,1.47239 -3.3609,3.22832 -2.06244,5.5932 1.56436,2.84913 4.25934,2.72159 7.02151,1.8978 4.71872,-1.4073 8.73911,-3.993 12.48059,-7.12263 3.70844,-3.10201 7.53174,-6.06142 12.18692,-7.66338 1.36509,-0.46977 2.70682,-0.43068 3.42014,1.0766 0.60181,1.27159 -0.0414,2.24141 -1.09277,2.97389 -7.33716,5.1118 -13.89936,11.32674 -21.92087,15.46004 -2.06412,1.06361 -4.21601,1.95691 -6.72904,3.04512 z"
         id="path10" /><path
         fill="#000000"
         opacity="1"
         stroke="none"
         d="m 310.25845,248.04854 c 1.66904,-0.78774 2.99008,-1.74393 4.43601,-0.42424 0.61709,1.52998 -0.26218,2.61612 -1.18665,3.54945 -9.23053,9.31911 -17.49808,19.5999 -27.70129,27.94011 -1.9115,1.56247 -4.41794,4.68604 -6.70233,2.20581 -2.23517,-2.42673 1.02707,-4.7955 2.68783,-6.61929 3.79999,-4.17301 7.88187,-8.08988 11.86292,-12.09726 2.06927,-2.08298 3.71808,-4.29407 2.08343,-7.9102 5.35141,-1.32528 9.82929,-3.77791 14.52008,-6.64438 z"
         id="path11" /><path
         fill="#000000"
         opacity="1"
         stroke="none"
         d="m 317.11591,179.27606 c -3.20441,2.24053 -6.3266,3.50505 -9.48511,1.06894 -2.27539,-1.75494 -4.67194,-3.80141 -3.41422,-7.29674 0.44345,-0.0695 0.61905,-0.14645 0.77072,-0.11345 2.87009,0.62502 4.22742,4.93767 8.28873,2.96384 4.52442,-2.19887 7.26907,-5.64943 8.90354,-10.22519 2.44806,-6.85356 4.37414,-8.23753 11.66836,-8.30629 2.43301,-0.0229 4.88672,0.28642 5.32523,3.29132 0.42428,2.90772 -2.10474,2.85781 -3.93659,3.44232 -5.18966,1.65595 -8.24844,6.02181 -12.00653,9.49459 -1.95444,1.80606 -3.87756,3.64601 -6.11413,5.68066 z"
         id="path12" /><path
         fill="#000000"
         opacity="1"
         stroke="none"
         d="m 332.64572,184.86761 c 0.63782,-1.18089 1.3074,-2.10842 0.43945,-3.02002 -0.85821,-0.90135 -1.84591,-0.50279 -2.65399,0.16445 -2.29962,1.89876 -5.32309,4.89003 -7.57217,1.80775 -2.4802,-3.39891 2.44156,-4.48575 4.14758,-6.57243 0.20786,-0.25423 0.60831,-0.41188 0.70343,-0.68855 2.70941,-7.88253 7.33887,-5.28163 12.43311,-2.60332 3.37677,1.77533 3.7536,3.86241 2.1488,6.81412 -1.56598,2.88037 -4.36123,4.88717 -5.4162,8.23726 -0.5787,1.83789 -2.89429,1.68502 -4.33163,0.87378 -2.33658,-1.31873 -0.80326,-3.10811 0.10162,-5.01304 z"
         id="path13" /><path
         fill="#000000"
         opacity="1"
         stroke="none"
         d="m 371.22656,230.22479 c 2.34903,-2.26578 4.71817,-3.70596 7.69666,-3.83479 2.01361,-0.0871 3.65512,0.58966 4.16821,2.71432 0.49365,2.04415 -0.89261,2.5522 -2.4859,3.5019 -3.54605,2.11361 -6.71524,4.85949 -9.95023,7.28193 1.42017,2.83972 3.39084,2.74007 5.42249,2.5773 1.6546,-0.13255 3.72031,-0.40385 3.77023,1.94904 0.0422,1.98802 -1.85382,2.49335 -3.54147,2.79382 -6.4578,1.14972 -10.94489,-3.94179 -9.09171,-10.3685 0.69779,-2.41993 1.9578,-4.55563 4.01172,-6.61502 z"
         id="path14" /><path
         fill="#000000"
         opacity="1"
         stroke="none"
         d="m 322.28839,218.82106 c 4.30515,-6.46986 9.54337,-11.50168 15.40958,-15.9054 1.43383,-1.07637 3.13748,-2.56364 4.77237,-0.65322 1.50781,1.76193 0.12347,3.46322 -1.04276,4.8563 -2.26968,2.71117 -5.40204,4.34446 -8.27664,6.28501 -2.06665,1.39508 -4.07278,2.81804 -5.25995,4.80855 -0.0476,1.96324 2.50186,1.26203 2.41162,3.43823 -1.4769,2.26379 -4.0401,1.94516 -6.40176,1.44859 -1.99063,-0.41855 -2.37561,-2.07449 -1.61246,-4.27806 z"
         id="path15" /><path
         fill="#000000"
         opacity="1"
         stroke="none"
         d="m 404.20666,214.15886 c -2.31631,2.94249 -4.9071,4.94548 -8.03335,6.24852 -1.65662,0.69047 -3.31143,0.70473 -4.66779,-0.52591 -1.44189,-1.30824 -1.96347,-3.10281 -1.57129,-4.99524 0.40088,-1.9346 1.83426,-3.30876 3.52753,-1.85971 3.2536,2.78438 4.66251,0.31956 6.34659,-1.69844 5.16736,-6.19187 5.15665,-6.20081 8.52896,-7.02394 1.06271,4.20727 -2.06415,6.64193 -4.13065,9.85472 z"
         id="path16" /><path
         fill="#000000"
         opacity="1"
         stroke="none"
         d="m 191.70196,231.56671 c -1.84739,-2.55243 -0.15861,-2.92284 1.46874,-2.73746 8.75272,0.99713 15.48637,5.74953 22.42651,11.53356 -2.74778,0.86644 -15.36361,-4.07544 -23.89525,-8.7961 z"
         id="path17" /><path
         fill="#000000"
         opacity="1"
         stroke="none"
         d="m 355.12906,270.13147 c 4.21823,-3.67642 7.85119,-7.53659 13.09802,-9.38825 -8.77167,9.61481 -18.3779,18.30976 -28.84817,26.11915 3.78656,-6.80036 9.73895,-11.55079 15.75015,-16.7309 z"
         id="path18" /><path
         fill="#000000"
         opacity="1"
         stroke="none"
         d="m 383.09274,207.28102 c 2.68195,-3.18202 4.56681,-6.84825 10.24658,-7.28677 -2.02395,5.85351 -4.69271,10.34916 -8.44619,14.24499 -0.70618,0.73299 -1.69748,1.10427 -2.66754,0.38429 -0.83338,-0.61848 -1.2566,-1.53186 -1.24729,-2.56512 0.0156,-1.73766 0.97244,-3.10674 2.11444,-4.77739 z"
         id="path19" /><path
         fill="#000000"
         opacity="1"
         stroke="none"
         d="m 325.0643,300.86334 c -1.08655,0.3812 -1.88022,0.64942 -2.96518,-0.28488 2.77139,-3.84842 6.58542,-6.4248 11.34457,-9.65234 -1.64096,5.11282 -4.96643,7.36297 -8.37939,9.93722 z"
         id="path20" /><path
         fill="#000000"
         opacity="1"
         stroke="none"
         d="m 422.30249,157.09415 c -0.54135,-1.11724 -0.53509,-2.18769 0.53888,-2.06148 3.41965,0.40198 6.53281,1.49368 8.37784,5.34038 -3.7894,0.59504 -6.24692,-1.20435 -8.91672,-3.2789 z"
         id="path21" /><path
         fill="#000000"
         opacity="1"
         stroke="none"
         d="m 283.89697,429.27435 c -0.3681,-2.34665 -0.113,-3.97879 2.31861,-2.14886 1.74176,1.31079 2.55014,3.30859 2.59286,5.99832 -2.5123,-0.13812 -3.56537,-1.97131 -4.91147,-3.84946 z"
         id="path22" /><path
         fill="#000000"
         opacity="1"
         stroke="none"
         d="m 180.31877,532.74005 c 4.81462,6.32013 6.63576,13.29468 6.97867,20.72693 0.0913,1.97833 0.18596,4.38611 -2.46043,4.73694 -2.90568,0.38519 -4.08172,-1.65192 -4.44419,-4.2439 -0.57341,-4.10028 -1.0605,-8.21478 -1.73883,-12.29761 -0.4023,-2.42126 -1.16354,-4.76403 -2.88028,-6.85284 -5.25603,3.85809 -2.20502,11.10748 -6.60252,15.11414 -3.21968,-3.94745 -0.75325,-18.12079 4.22555,-24.63495 1.8335,2.8291 3.86615,5.39197 6.92203,7.45129 z"
         id="path23" /></g></g></svg>
